<mxfile host="Electron" agent="Mozilla/5.0 (X11; Linux x86_64) AppleWebKit/537.36 (KHTML, like Gecko) draw.io/24.7.17 Chrome/128.0.6613.36 Electron/32.0.1 Safari/537.36" version="24.7.17" pages="4">
  <diagram id="MiIZ8sAj29S9QbyE3cgr" name="MER">
    <mxGraphModel dx="809" dy="531" grid="1" gridSize="10" guides="1" tooltips="1" connect="1" arrows="1" fold="1" page="1" pageScale="1" pageWidth="827" pageHeight="1169" math="0" shadow="0">
      <root>
        <mxCell id="0" />
        <mxCell id="1" parent="0" />
        <mxCell id="Horah-7d6EJ0P-RrAEXn-1" value="Liga" style="shape=table;startSize=30;container=1;collapsible=1;childLayout=tableLayout;fixedRows=1;rowLines=0;fontStyle=1;align=center;resizeLast=1;html=1;fillColor=#d5e8d4;strokeColor=#82b366;" vertex="1" parent="1">
          <mxGeometry x="190" y="230" width="180" height="140" as="geometry" />
        </mxCell>
        <mxCell id="Horah-7d6EJ0P-RrAEXn-2" value="" style="shape=tableRow;horizontal=0;startSize=0;swimlaneHead=0;swimlaneBody=0;fillColor=none;collapsible=0;dropTarget=0;points=[[0,0.5],[1,0.5]];portConstraint=eastwest;top=0;left=0;right=0;bottom=1;" vertex="1" parent="Horah-7d6EJ0P-RrAEXn-1">
          <mxGeometry y="30" width="180" height="30" as="geometry" />
        </mxCell>
        <mxCell id="Horah-7d6EJ0P-RrAEXn-3" value="PK1" style="shape=partialRectangle;connectable=0;fillColor=none;top=0;left=0;bottom=0;right=0;fontStyle=1;overflow=hidden;whiteSpace=wrap;html=1;" vertex="1" parent="Horah-7d6EJ0P-RrAEXn-2">
          <mxGeometry width="60" height="30" as="geometry">
            <mxRectangle width="60" height="30" as="alternateBounds" />
          </mxGeometry>
        </mxCell>
        <mxCell id="Horah-7d6EJ0P-RrAEXn-4" value="ID_Liga" style="shape=partialRectangle;connectable=0;fillColor=none;top=0;left=0;bottom=0;right=0;align=left;spacingLeft=6;fontStyle=5;overflow=hidden;whiteSpace=wrap;html=1;" vertex="1" parent="Horah-7d6EJ0P-RrAEXn-2">
          <mxGeometry x="60" width="120" height="30" as="geometry">
            <mxRectangle width="120" height="30" as="alternateBounds" />
          </mxGeometry>
        </mxCell>
        <mxCell id="Horah-7d6EJ0P-RrAEXn-5" style="shape=tableRow;horizontal=0;startSize=0;swimlaneHead=0;swimlaneBody=0;fillColor=none;collapsible=0;dropTarget=0;points=[[0,0.5],[1,0.5]];portConstraint=eastwest;top=0;left=0;right=0;bottom=1;" vertex="1" parent="Horah-7d6EJ0P-RrAEXn-1">
          <mxGeometry y="60" width="180" height="30" as="geometry" />
        </mxCell>
        <mxCell id="Horah-7d6EJ0P-RrAEXn-6" value="PK2, FK1" style="shape=partialRectangle;connectable=0;fillColor=none;top=0;left=0;bottom=0;right=0;fontStyle=1;overflow=hidden;whiteSpace=wrap;html=1;" vertex="1" parent="Horah-7d6EJ0P-RrAEXn-5">
          <mxGeometry width="60" height="30" as="geometry">
            <mxRectangle width="60" height="30" as="alternateBounds" />
          </mxGeometry>
        </mxCell>
        <mxCell id="Horah-7d6EJ0P-RrAEXn-7" value="Temporada" style="shape=partialRectangle;connectable=0;fillColor=none;top=0;left=0;bottom=0;right=0;align=left;spacingLeft=6;fontStyle=5;overflow=hidden;whiteSpace=wrap;html=1;" vertex="1" parent="Horah-7d6EJ0P-RrAEXn-5">
          <mxGeometry x="60" width="120" height="30" as="geometry">
            <mxRectangle width="120" height="30" as="alternateBounds" />
          </mxGeometry>
        </mxCell>
        <mxCell id="Horah-7d6EJ0P-RrAEXn-8" style="shape=tableRow;horizontal=0;startSize=0;swimlaneHead=0;swimlaneBody=0;fillColor=none;collapsible=0;dropTarget=0;points=[[0,0.5],[1,0.5]];portConstraint=eastwest;top=0;left=0;right=0;bottom=1;" vertex="1" parent="Horah-7d6EJ0P-RrAEXn-1">
          <mxGeometry y="90" width="180" height="30" as="geometry" />
        </mxCell>
        <mxCell id="Horah-7d6EJ0P-RrAEXn-9" value="FK2" style="shape=partialRectangle;connectable=0;fillColor=none;top=0;left=0;bottom=0;right=0;fontStyle=1;overflow=hidden;whiteSpace=wrap;html=1;" vertex="1" parent="Horah-7d6EJ0P-RrAEXn-8">
          <mxGeometry width="60" height="30" as="geometry">
            <mxRectangle width="60" height="30" as="alternateBounds" />
          </mxGeometry>
        </mxCell>
        <mxCell id="Horah-7d6EJ0P-RrAEXn-10" value="ID_Pais" style="shape=partialRectangle;connectable=0;fillColor=none;top=0;left=0;bottom=0;right=0;align=left;spacingLeft=6;fontStyle=5;overflow=hidden;whiteSpace=wrap;html=1;" vertex="1" parent="Horah-7d6EJ0P-RrAEXn-8">
          <mxGeometry x="60" width="120" height="30" as="geometry">
            <mxRectangle width="120" height="30" as="alternateBounds" />
          </mxGeometry>
        </mxCell>
        <mxCell id="Horah-7d6EJ0P-RrAEXn-11" style="shape=tableRow;horizontal=0;startSize=0;swimlaneHead=0;swimlaneBody=0;fillColor=none;collapsible=0;dropTarget=0;points=[[0,0.5],[1,0.5]];portConstraint=eastwest;top=0;left=0;right=0;bottom=1;" vertex="1" parent="Horah-7d6EJ0P-RrAEXn-1">
          <mxGeometry y="120" width="180" height="20" as="geometry" />
        </mxCell>
        <mxCell id="Horah-7d6EJ0P-RrAEXn-12" style="shape=partialRectangle;connectable=0;fillColor=none;top=0;left=0;bottom=0;right=0;fontStyle=0;overflow=hidden;whiteSpace=wrap;html=1;" vertex="1" parent="Horah-7d6EJ0P-RrAEXn-11">
          <mxGeometry width="60" height="20" as="geometry">
            <mxRectangle width="60" height="20" as="alternateBounds" />
          </mxGeometry>
        </mxCell>
        <mxCell id="Horah-7d6EJ0P-RrAEXn-13" value="Nombre_Liga" style="shape=partialRectangle;connectable=0;fillColor=none;top=0;left=0;bottom=0;right=0;align=left;spacingLeft=6;fontStyle=0;overflow=hidden;whiteSpace=wrap;html=1;" vertex="1" parent="Horah-7d6EJ0P-RrAEXn-11">
          <mxGeometry x="60" width="120" height="20" as="geometry">
            <mxRectangle width="120" height="20" as="alternateBounds" />
          </mxGeometry>
        </mxCell>
        <mxCell id="Horah-7d6EJ0P-RrAEXn-14" value="Temporada" style="shape=table;startSize=30;container=1;collapsible=1;childLayout=tableLayout;fixedRows=1;rowLines=0;fontStyle=1;align=center;resizeLast=1;html=1;fillColor=#d5e8d4;strokeColor=#82b366;" vertex="1" parent="1">
          <mxGeometry x="440" y="300" width="180" height="80" as="geometry" />
        </mxCell>
        <mxCell id="Horah-7d6EJ0P-RrAEXn-15" value="" style="shape=tableRow;horizontal=0;startSize=0;swimlaneHead=0;swimlaneBody=0;fillColor=none;collapsible=0;dropTarget=0;points=[[0,0.5],[1,0.5]];portConstraint=eastwest;top=0;left=0;right=0;bottom=1;" vertex="1" parent="Horah-7d6EJ0P-RrAEXn-14">
          <mxGeometry y="30" width="180" height="30" as="geometry" />
        </mxCell>
        <mxCell id="Horah-7d6EJ0P-RrAEXn-16" value="PK1" style="shape=partialRectangle;connectable=0;fillColor=none;top=0;left=0;bottom=0;right=0;fontStyle=1;overflow=hidden;whiteSpace=wrap;html=1;" vertex="1" parent="Horah-7d6EJ0P-RrAEXn-15">
          <mxGeometry width="60" height="30" as="geometry">
            <mxRectangle width="60" height="30" as="alternateBounds" />
          </mxGeometry>
        </mxCell>
        <mxCell id="Horah-7d6EJ0P-RrAEXn-17" value="Temporada" style="shape=partialRectangle;connectable=0;fillColor=none;top=0;left=0;bottom=0;right=0;align=left;spacingLeft=6;fontStyle=5;overflow=hidden;whiteSpace=wrap;html=1;" vertex="1" parent="Horah-7d6EJ0P-RrAEXn-15">
          <mxGeometry x="60" width="120" height="30" as="geometry">
            <mxRectangle width="120" height="30" as="alternateBounds" />
          </mxGeometry>
        </mxCell>
        <mxCell id="Horah-7d6EJ0P-RrAEXn-24" style="shape=tableRow;horizontal=0;startSize=0;swimlaneHead=0;swimlaneBody=0;fillColor=none;collapsible=0;dropTarget=0;points=[[0,0.5],[1,0.5]];portConstraint=eastwest;top=0;left=0;right=0;bottom=1;" vertex="1" parent="Horah-7d6EJ0P-RrAEXn-14">
          <mxGeometry y="60" width="180" height="20" as="geometry" />
        </mxCell>
        <mxCell id="Horah-7d6EJ0P-RrAEXn-25" style="shape=partialRectangle;connectable=0;fillColor=none;top=0;left=0;bottom=0;right=0;fontStyle=0;overflow=hidden;whiteSpace=wrap;html=1;" vertex="1" parent="Horah-7d6EJ0P-RrAEXn-24">
          <mxGeometry width="60" height="20" as="geometry">
            <mxRectangle width="60" height="20" as="alternateBounds" />
          </mxGeometry>
        </mxCell>
        <mxCell id="Horah-7d6EJ0P-RrAEXn-26" value="AÃ±o" style="shape=partialRectangle;connectable=0;fillColor=none;top=0;left=0;bottom=0;right=0;align=left;spacingLeft=6;fontStyle=0;overflow=hidden;whiteSpace=wrap;html=1;" vertex="1" parent="Horah-7d6EJ0P-RrAEXn-24">
          <mxGeometry x="60" width="120" height="20" as="geometry">
            <mxRectangle width="120" height="20" as="alternateBounds" />
          </mxGeometry>
        </mxCell>
      </root>
    </mxGraphModel>
  </diagram>
  <diagram name="DER" id="JfUvFyDGj4dzQZ6F4Orp">
    <mxGraphModel dx="809" dy="531" grid="1" gridSize="10" guides="1" tooltips="1" connect="1" arrows="1" fold="1" page="1" pageScale="1" pageWidth="827" pageHeight="1169" math="0" shadow="0">
      <root>
        <mxCell id="Wj37CyBW8K_qZgoVUJ4D-0" />
        <mxCell id="Wj37CyBW8K_qZgoVUJ4D-1" parent="Wj37CyBW8K_qZgoVUJ4D-0" />
        <mxCell id="Wj37CyBW8K_qZgoVUJ4D-3" value="Temporada" style="whiteSpace=wrap;html=1;fillColor=#e1d5e7;strokeColor=#9673a6;" vertex="1" parent="Wj37CyBW8K_qZgoVUJ4D-1">
          <mxGeometry x="240" y="660" width="120" height="60" as="geometry" />
        </mxCell>
        <mxCell id="Wj37CyBW8K_qZgoVUJ4D-4" value="Plantel" style="whiteSpace=wrap;html=1;fillColor=#d5e8d4;strokeColor=#82b366;" vertex="1" parent="Wj37CyBW8K_qZgoVUJ4D-1">
          <mxGeometry x="380" y="480" width="120" height="60" as="geometry" />
        </mxCell>
        <mxCell id="Wj37CyBW8K_qZgoVUJ4D-5" value="Liga" style="whiteSpace=wrap;html=1;fillColor=#dae8fc;strokeColor=#6c8ebf;" vertex="1" parent="Wj37CyBW8K_qZgoVUJ4D-1">
          <mxGeometry x="100" y="480" width="120" height="60" as="geometry" />
        </mxCell>
        <mxCell id="Wj37CyBW8K_qZgoVUJ4D-6" value="" style="endArrow=ERzeroToOne;html=1;rounded=0;endFill=0;" edge="1" parent="Wj37CyBW8K_qZgoVUJ4D-1" target="Wj37CyBW8K_qZgoVUJ4D-5" source="Wj37CyBW8K_qZgoVUJ4D-12">
          <mxGeometry width="50" height="50" relative="1" as="geometry">
            <mxPoint x="320" y="440" as="sourcePoint" />
            <mxPoint x="270" y="480" as="targetPoint" />
          </mxGeometry>
        </mxCell>
        <mxCell id="Wj37CyBW8K_qZgoVUJ4D-7" value="1" style="edgeLabel;html=1;align=center;verticalAlign=middle;resizable=0;points=[];" vertex="1" connectable="0" parent="Wj37CyBW8K_qZgoVUJ4D-6">
          <mxGeometry x="0.29" y="4" relative="1" as="geometry">
            <mxPoint x="15" y="3" as="offset" />
          </mxGeometry>
        </mxCell>
        <mxCell id="Wj37CyBW8K_qZgoVUJ4D-8" value="" style="endArrow=ERoneToMany;html=1;rounded=0;endFill=0;" edge="1" parent="Wj37CyBW8K_qZgoVUJ4D-1" target="Wj37CyBW8K_qZgoVUJ4D-3" source="Wj37CyBW8K_qZgoVUJ4D-12">
          <mxGeometry width="50" height="50" relative="1" as="geometry">
            <mxPoint x="320" y="440" as="sourcePoint" />
            <mxPoint x="250" y="490" as="targetPoint" />
          </mxGeometry>
        </mxCell>
        <mxCell id="Wj37CyBW8K_qZgoVUJ4D-9" value="3" style="edgeLabel;html=1;align=center;verticalAlign=middle;resizable=0;points=[];" vertex="1" connectable="0" parent="Wj37CyBW8K_qZgoVUJ4D-8">
          <mxGeometry x="0.275" y="1" relative="1" as="geometry">
            <mxPoint x="-1" y="-10" as="offset" />
          </mxGeometry>
        </mxCell>
        <mxCell id="Wj37CyBW8K_qZgoVUJ4D-10" value="" style="endArrow=ERoneToMany;html=1;rounded=0;endFill=0;" edge="1" parent="Wj37CyBW8K_qZgoVUJ4D-1" target="Wj37CyBW8K_qZgoVUJ4D-4" source="Wj37CyBW8K_qZgoVUJ4D-12">
          <mxGeometry width="50" height="50" relative="1" as="geometry">
            <mxPoint x="320" y="440" as="sourcePoint" />
            <mxPoint x="330" y="370" as="targetPoint" />
          </mxGeometry>
        </mxCell>
        <mxCell id="Wj37CyBW8K_qZgoVUJ4D-11" value="2" style="edgeLabel;html=1;align=center;verticalAlign=middle;resizable=0;points=[];" vertex="1" connectable="0" parent="Wj37CyBW8K_qZgoVUJ4D-10">
          <mxGeometry x="0.51" y="1" relative="1" as="geometry">
            <mxPoint x="-17" y="10" as="offset" />
          </mxGeometry>
        </mxCell>
        <mxCell id="Wj37CyBW8K_qZgoVUJ4D-12" value="Concurren" style="rhombus;whiteSpace=wrap;html=1;fillColor=#fff2cc;strokeColor=#d6b656;" vertex="1" parent="Wj37CyBW8K_qZgoVUJ4D-1">
          <mxGeometry x="260" y="540" width="80" height="80" as="geometry" />
        </mxCell>
        <mxCell id="Wj37CyBW8K_qZgoVUJ4D-16" style="rounded=0;orthogonalLoop=1;jettySize=auto;html=1;startArrow=ERzeroToMany;startFill=0;endArrow=ERzeroToOne;endFill=0;entryX=1;entryY=0.5;entryDx=0;entryDy=0;exitX=0.5;exitY=0;exitDx=0;exitDy=0;" edge="1" parent="Wj37CyBW8K_qZgoVUJ4D-1" source="Wj37CyBW8K_qZgoVUJ4D-18" target="Wj37CyBW8K_qZgoVUJ4D-20">
          <mxGeometry relative="1" as="geometry">
            <Array as="points">
              <mxPoint x="595" y="330" />
            </Array>
          </mxGeometry>
        </mxCell>
        <mxCell id="Wj37CyBW8K_qZgoVUJ4D-17" value="Pertenece" style="rhombus;whiteSpace=wrap;html=1;fillColor=#fff2cc;strokeColor=#d6b656;" vertex="1" parent="Wj37CyBW8K_qZgoVUJ4D-1">
          <mxGeometry x="560" y="295" width="70" height="70" as="geometry" />
        </mxCell>
        <mxCell id="Wj37CyBW8K_qZgoVUJ4D-18" value="Jugador" style="rounded=0;whiteSpace=wrap;html=1;fillColor=#dae8fc;strokeColor=#6c8ebf;" vertex="1" parent="Wj37CyBW8K_qZgoVUJ4D-1">
          <mxGeometry x="535" y="390" width="120" height="60" as="geometry" />
        </mxCell>
        <mxCell id="Wj37CyBW8K_qZgoVUJ4D-19" style="edgeStyle=orthogonalEdgeStyle;rounded=0;orthogonalLoop=1;jettySize=auto;html=1;exitX=0;exitY=0.75;exitDx=0;exitDy=0;entryX=1;entryY=0.5;entryDx=0;entryDy=0;endArrow=ERzeroToOne;endFill=0;startArrow=ERoneToMany;startFill=0;" edge="1" parent="Wj37CyBW8K_qZgoVUJ4D-1" source="Wj37CyBW8K_qZgoVUJ4D-20" target="Wj37CyBW8K_qZgoVUJ4D-5">
          <mxGeometry relative="1" as="geometry">
            <mxPoint x="290" y="540" as="targetPoint" />
            <Array as="points">
              <mxPoint x="300" y="345" />
              <mxPoint x="300" y="510" />
            </Array>
          </mxGeometry>
        </mxCell>
        <mxCell id="Wj37CyBW8K_qZgoVUJ4D-20" value="Equipo" style="rounded=0;whiteSpace=wrap;html=1;fillColor=#dae8fc;strokeColor=#6c8ebf;" vertex="1" parent="Wj37CyBW8K_qZgoVUJ4D-1">
          <mxGeometry x="380" y="300" width="120" height="60" as="geometry" />
        </mxCell>
        <mxCell id="Wj37CyBW8K_qZgoVUJ4D-21" value="" style="endArrow=ERmandOne;html=1;rounded=0;endFill=0;startArrow=ERzeroToMany;startFill=0;" edge="1" parent="Wj37CyBW8K_qZgoVUJ4D-1" source="Wj37CyBW8K_qZgoVUJ4D-4" target="Wj37CyBW8K_qZgoVUJ4D-20">
          <mxGeometry width="50" height="50" relative="1" as="geometry">
            <mxPoint x="494" y="520" as="sourcePoint" />
            <mxPoint x="584" y="440" as="targetPoint" />
          </mxGeometry>
        </mxCell>
        <mxCell id="Wj37CyBW8K_qZgoVUJ4D-22" value="" style="endArrow=ERoneToMany;html=1;rounded=0;endFill=0;" edge="1" parent="Wj37CyBW8K_qZgoVUJ4D-1" source="Wj37CyBW8K_qZgoVUJ4D-72" target="Wj37CyBW8K_qZgoVUJ4D-18">
          <mxGeometry width="50" height="50" relative="1" as="geometry">
            <mxPoint x="424" y="400" as="sourcePoint" />
            <mxPoint x="634" y="410" as="targetPoint" />
            <Array as="points" />
          </mxGeometry>
        </mxCell>
        <mxCell id="Wj37CyBW8K_qZgoVUJ4D-23" value="" style="endArrow=ERzeroToMany;html=1;rounded=0;endFill=0;" edge="1" parent="Wj37CyBW8K_qZgoVUJ4D-1" source="Wj37CyBW8K_qZgoVUJ4D-72" target="Wj37CyBW8K_qZgoVUJ4D-4">
          <mxGeometry width="50" height="50" relative="1" as="geometry">
            <mxPoint x="554" y="470" as="sourcePoint" />
            <mxPoint x="594" y="540" as="targetPoint" />
            <Array as="points" />
          </mxGeometry>
        </mxCell>
        <mxCell id="Wj37CyBW8K_qZgoVUJ4D-24" value="PaÃ­s" style="rounded=0;whiteSpace=wrap;html=1;fillColor=#f5f5f5;strokeColor=#666666;fontColor=#333333;" vertex="1" parent="Wj37CyBW8K_qZgoVUJ4D-1">
          <mxGeometry x="100" y="660" width="120" height="60" as="geometry" />
        </mxCell>
        <mxCell id="Wj37CyBW8K_qZgoVUJ4D-25" value="" style="endArrow=ERzeroToMany;html=1;rounded=0;endFill=0;startArrow=ERmandOne;startFill=0;" edge="1" parent="Wj37CyBW8K_qZgoVUJ4D-1" source="Wj37CyBW8K_qZgoVUJ4D-18" target="Wj37CyBW8K_qZgoVUJ4D-26">
          <mxGeometry width="50" height="50" relative="1" as="geometry">
            <mxPoint x="690" y="390" as="sourcePoint" />
            <mxPoint x="580" y="410" as="targetPoint" />
            <Array as="points">
              <mxPoint x="720" y="420" />
            </Array>
          </mxGeometry>
        </mxCell>
        <mxCell id="Wj37CyBW8K_qZgoVUJ4D-26" value="Atributos&lt;br&gt;Jugador" style="rounded=0;whiteSpace=wrap;html=1;fillColor=#f5f5f5;fontColor=#333333;strokeColor=#666666;" vertex="1" parent="Wj37CyBW8K_qZgoVUJ4D-1">
          <mxGeometry x="680" y="310" width="80" height="40" as="geometry" />
        </mxCell>
        <mxCell id="Wj37CyBW8K_qZgoVUJ4D-27" style="edgeStyle=orthogonalEdgeStyle;rounded=0;orthogonalLoop=1;jettySize=auto;html=1;endArrow=ERmandOne;endFill=0;startArrow=ERzeroToMany;startFill=0;" edge="1" parent="Wj37CyBW8K_qZgoVUJ4D-1" source="Wj37CyBW8K_qZgoVUJ4D-5" target="Wj37CyBW8K_qZgoVUJ4D-24">
          <mxGeometry relative="1" as="geometry">
            <mxPoint x="180" y="310" as="sourcePoint" />
            <mxPoint x="-30" y="510" as="targetPoint" />
          </mxGeometry>
        </mxCell>
        <mxCell id="Wj37CyBW8K_qZgoVUJ4D-28" value="Pertenece" style="rhombus;whiteSpace=wrap;html=1;fillColor=#fff2cc;strokeColor=#d6b656;" vertex="1" parent="Wj37CyBW8K_qZgoVUJ4D-1">
          <mxGeometry x="125" y="565" width="70" height="70" as="geometry" />
        </mxCell>
        <mxCell id="Wj37CyBW8K_qZgoVUJ4D-31" value="Partido" style="rounded=0;whiteSpace=wrap;html=1;fillColor=#dae8fc;strokeColor=#6c8ebf;" vertex="1" parent="Wj37CyBW8K_qZgoVUJ4D-1">
          <mxGeometry x="100" y="300" width="120" height="60" as="geometry" />
        </mxCell>
        <mxCell id="Wj37CyBW8K_qZgoVUJ4D-32" style="edgeStyle=orthogonalEdgeStyle;rounded=0;orthogonalLoop=1;jettySize=auto;html=1;entryX=0.5;entryY=1;entryDx=0;entryDy=0;endArrow=ERmandOne;endFill=0;startArrow=ERzeroToMany;startFill=0;exitX=0.5;exitY=0;exitDx=0;exitDy=0;" edge="1" parent="Wj37CyBW8K_qZgoVUJ4D-1" source="Wj37CyBW8K_qZgoVUJ4D-5" target="Wj37CyBW8K_qZgoVUJ4D-31">
          <mxGeometry relative="1" as="geometry">
            <mxPoint x="50" y="500" as="sourcePoint" />
            <mxPoint x="100" y="430" as="targetPoint" />
          </mxGeometry>
        </mxCell>
        <mxCell id="Wj37CyBW8K_qZgoVUJ4D-33" value="Se&lt;div&gt;Juega&lt;/div&gt;&lt;div&gt;En&lt;/div&gt;" style="rhombus;whiteSpace=wrap;html=1;fillColor=#fff2cc;strokeColor=#d6b656;" vertex="1" parent="Wj37CyBW8K_qZgoVUJ4D-1">
          <mxGeometry x="125" y="385" width="70" height="70" as="geometry" />
        </mxCell>
        <mxCell id="Wj37CyBW8K_qZgoVUJ4D-34" value="Goles-Local" style="ellipse;whiteSpace=wrap;html=1;" vertex="1" parent="Wj37CyBW8K_qZgoVUJ4D-1">
          <mxGeometry x="28" y="308" width="60" height="30" as="geometry" />
        </mxCell>
        <mxCell id="Wj37CyBW8K_qZgoVUJ4D-35" value="" style="endArrow=none;html=1;rounded=0;" edge="1" parent="Wj37CyBW8K_qZgoVUJ4D-1" source="Wj37CyBW8K_qZgoVUJ4D-31" target="Wj37CyBW8K_qZgoVUJ4D-34">
          <mxGeometry width="50" height="50" relative="1" as="geometry">
            <mxPoint x="-60" y="360" as="sourcePoint" />
            <mxPoint x="-10" y="310" as="targetPoint" />
          </mxGeometry>
        </mxCell>
        <mxCell id="Wj37CyBW8K_qZgoVUJ4D-36" value="Goles-Visitante" style="ellipse;whiteSpace=wrap;html=1;" vertex="1" parent="Wj37CyBW8K_qZgoVUJ4D-1">
          <mxGeometry x="30" y="274" width="60" height="30" as="geometry" />
        </mxCell>
        <mxCell id="Wj37CyBW8K_qZgoVUJ4D-37" value="" style="endArrow=none;html=1;rounded=0;" edge="1" parent="Wj37CyBW8K_qZgoVUJ4D-1" source="Wj37CyBW8K_qZgoVUJ4D-36" target="Wj37CyBW8K_qZgoVUJ4D-31">
          <mxGeometry width="50" height="50" relative="1" as="geometry">
            <mxPoint x="20" y="380" as="sourcePoint" />
            <mxPoint x="70" y="330" as="targetPoint" />
          </mxGeometry>
        </mxCell>
        <mxCell id="Wj37CyBW8K_qZgoVUJ4D-38" value="Goleadores" style="ellipse;whiteSpace=wrap;html=1;" vertex="1" parent="Wj37CyBW8K_qZgoVUJ4D-1">
          <mxGeometry x="25" y="343" width="70" height="30" as="geometry" />
        </mxCell>
        <mxCell id="Wj37CyBW8K_qZgoVUJ4D-39" value="" style="endArrow=none;html=1;rounded=0;" edge="1" parent="Wj37CyBW8K_qZgoVUJ4D-1" source="Wj37CyBW8K_qZgoVUJ4D-38" target="Wj37CyBW8K_qZgoVUJ4D-31">
          <mxGeometry width="50" height="50" relative="1" as="geometry">
            <mxPoint x="30" y="400" as="sourcePoint" />
            <mxPoint x="80" y="350" as="targetPoint" />
          </mxGeometry>
        </mxCell>
        <mxCell id="Wj37CyBW8K_qZgoVUJ4D-40" value="Resultado" style="ellipse;whiteSpace=wrap;html=1;" vertex="1" parent="Wj37CyBW8K_qZgoVUJ4D-1">
          <mxGeometry x="164" y="266" width="60" height="30" as="geometry" />
        </mxCell>
        <mxCell id="Wj37CyBW8K_qZgoVUJ4D-41" value="" style="endArrow=none;html=1;rounded=0;" edge="1" parent="Wj37CyBW8K_qZgoVUJ4D-1" source="Wj37CyBW8K_qZgoVUJ4D-40" target="Wj37CyBW8K_qZgoVUJ4D-31">
          <mxGeometry width="50" height="50" relative="1" as="geometry">
            <mxPoint x="-30" y="420" as="sourcePoint" />
            <mxPoint x="20" y="370" as="targetPoint" />
          </mxGeometry>
        </mxCell>
        <mxCell id="Wj37CyBW8K_qZgoVUJ4D-42" value="Fecha" style="ellipse;whiteSpace=wrap;html=1;fontStyle=5" vertex="1" parent="Wj37CyBW8K_qZgoVUJ4D-1">
          <mxGeometry x="130" y="238" width="60" height="30" as="geometry" />
        </mxCell>
        <mxCell id="Wj37CyBW8K_qZgoVUJ4D-43" value="" style="endArrow=none;html=1;rounded=0;" edge="1" parent="Wj37CyBW8K_qZgoVUJ4D-1" source="Wj37CyBW8K_qZgoVUJ4D-42" target="Wj37CyBW8K_qZgoVUJ4D-31">
          <mxGeometry width="50" height="50" relative="1" as="geometry">
            <mxPoint x="-60" y="410" as="sourcePoint" />
            <mxPoint x="-10" y="360" as="targetPoint" />
          </mxGeometry>
        </mxCell>
        <mxCell id="Wj37CyBW8K_qZgoVUJ4D-44" value="Nombre" style="ellipse;whiteSpace=wrap;html=1;" vertex="1" parent="Wj37CyBW8K_qZgoVUJ4D-1">
          <mxGeometry x="160" y="730" width="60" height="30" as="geometry" />
        </mxCell>
        <mxCell id="Wj37CyBW8K_qZgoVUJ4D-45" value="" style="endArrow=none;html=1;rounded=0;" edge="1" parent="Wj37CyBW8K_qZgoVUJ4D-1" source="Wj37CyBW8K_qZgoVUJ4D-44" target="Wj37CyBW8K_qZgoVUJ4D-24">
          <mxGeometry width="50" height="50" relative="1" as="geometry">
            <mxPoint x="-160" y="510" as="sourcePoint" />
            <mxPoint x="-110" y="460" as="targetPoint" />
          </mxGeometry>
        </mxCell>
        <mxCell id="Wj37CyBW8K_qZgoVUJ4D-46" value="ID" style="ellipse;whiteSpace=wrap;html=1;fontStyle=5" vertex="1" parent="Wj37CyBW8K_qZgoVUJ4D-1">
          <mxGeometry x="80" y="730" width="60" height="30" as="geometry" />
        </mxCell>
        <mxCell id="Wj37CyBW8K_qZgoVUJ4D-47" value="" style="endArrow=none;html=1;rounded=0;" edge="1" parent="Wj37CyBW8K_qZgoVUJ4D-1" source="Wj37CyBW8K_qZgoVUJ4D-46" target="Wj37CyBW8K_qZgoVUJ4D-24">
          <mxGeometry width="50" height="50" relative="1" as="geometry">
            <mxPoint x="-187" y="610" as="sourcePoint" />
            <mxPoint x="-100" y="590" as="targetPoint" />
          </mxGeometry>
        </mxCell>
        <mxCell id="Wj37CyBW8K_qZgoVUJ4D-48" value="Nombre" style="ellipse;whiteSpace=wrap;html=1;" vertex="1" parent="Wj37CyBW8K_qZgoVUJ4D-1">
          <mxGeometry x="180" y="440" width="60" height="30" as="geometry" />
        </mxCell>
        <mxCell id="Wj37CyBW8K_qZgoVUJ4D-49" value="" style="endArrow=none;html=1;rounded=0;" edge="1" parent="Wj37CyBW8K_qZgoVUJ4D-1" source="Wj37CyBW8K_qZgoVUJ4D-48" target="Wj37CyBW8K_qZgoVUJ4D-5">
          <mxGeometry width="50" height="50" relative="1" as="geometry">
            <mxPoint x="-152.5" y="650" as="sourcePoint" />
            <mxPoint x="-61.5" y="630" as="targetPoint" />
          </mxGeometry>
        </mxCell>
        <mxCell id="Wj37CyBW8K_qZgoVUJ4D-50" value="ID" style="ellipse;whiteSpace=wrap;html=1;fontStyle=5" vertex="1" parent="Wj37CyBW8K_qZgoVUJ4D-1">
          <mxGeometry x="80" y="440" width="60" height="30" as="geometry" />
        </mxCell>
        <mxCell id="Wj37CyBW8K_qZgoVUJ4D-51" value="" style="endArrow=none;html=1;rounded=0;" edge="1" parent="Wj37CyBW8K_qZgoVUJ4D-1" source="Wj37CyBW8K_qZgoVUJ4D-50" target="Wj37CyBW8K_qZgoVUJ4D-5">
          <mxGeometry width="50" height="50" relative="1" as="geometry">
            <mxPoint x="-179.5" y="750" as="sourcePoint" />
            <mxPoint x="-45.5" y="630" as="targetPoint" />
          </mxGeometry>
        </mxCell>
        <mxCell id="Wj37CyBW8K_qZgoVUJ4D-52" value="AÃ±o" style="ellipse;whiteSpace=wrap;html=1;" vertex="1" parent="Wj37CyBW8K_qZgoVUJ4D-1">
          <mxGeometry x="310" y="620" width="60" height="30" as="geometry" />
        </mxCell>
        <mxCell id="Wj37CyBW8K_qZgoVUJ4D-53" value="" style="endArrow=none;html=1;rounded=0;" edge="1" parent="Wj37CyBW8K_qZgoVUJ4D-1" source="Wj37CyBW8K_qZgoVUJ4D-52" target="Wj37CyBW8K_qZgoVUJ4D-3">
          <mxGeometry width="50" height="50" relative="1" as="geometry">
            <mxPoint x="440" y="270" as="sourcePoint" />
            <mxPoint x="490" y="220" as="targetPoint" />
          </mxGeometry>
        </mxCell>
        <mxCell id="Wj37CyBW8K_qZgoVUJ4D-54" value="Nombre" style="ellipse;whiteSpace=wrap;html=1;" vertex="1" parent="Wj37CyBW8K_qZgoVUJ4D-1">
          <mxGeometry x="524" y="455" width="60" height="30" as="geometry" />
        </mxCell>
        <mxCell id="Wj37CyBW8K_qZgoVUJ4D-55" value="" style="endArrow=none;html=1;rounded=0;" edge="1" parent="Wj37CyBW8K_qZgoVUJ4D-1" source="Wj37CyBW8K_qZgoVUJ4D-54" target="Wj37CyBW8K_qZgoVUJ4D-18">
          <mxGeometry width="50" height="50" relative="1" as="geometry">
            <mxPoint x="590" y="320" as="sourcePoint" />
            <mxPoint x="640" y="270" as="targetPoint" />
          </mxGeometry>
        </mxCell>
        <mxCell id="Wj37CyBW8K_qZgoVUJ4D-56" value="ID" style="ellipse;whiteSpace=wrap;html=1;fontStyle=5" vertex="1" parent="Wj37CyBW8K_qZgoVUJ4D-1">
          <mxGeometry x="524" y="355" width="60" height="30" as="geometry" />
        </mxCell>
        <mxCell id="Wj37CyBW8K_qZgoVUJ4D-57" value="" style="endArrow=none;html=1;rounded=0;" edge="1" parent="Wj37CyBW8K_qZgoVUJ4D-1" source="Wj37CyBW8K_qZgoVUJ4D-18" target="Wj37CyBW8K_qZgoVUJ4D-56">
          <mxGeometry width="50" height="50" relative="1" as="geometry">
            <mxPoint x="510" y="300" as="sourcePoint" />
            <mxPoint x="560" y="250" as="targetPoint" />
          </mxGeometry>
        </mxCell>
        <mxCell id="Wj37CyBW8K_qZgoVUJ4D-58" value="Nombre" style="ellipse;whiteSpace=wrap;html=1;" vertex="1" parent="Wj37CyBW8K_qZgoVUJ4D-1">
          <mxGeometry x="370" y="365" width="60" height="30" as="geometry" />
        </mxCell>
        <mxCell id="Wj37CyBW8K_qZgoVUJ4D-59" value="" style="endArrow=none;html=1;rounded=0;" edge="1" parent="Wj37CyBW8K_qZgoVUJ4D-1" source="Wj37CyBW8K_qZgoVUJ4D-58" target="Wj37CyBW8K_qZgoVUJ4D-20">
          <mxGeometry width="50" height="50" relative="1" as="geometry">
            <mxPoint x="1064" y="470" as="sourcePoint" />
            <mxPoint x="1039" y="490" as="targetPoint" />
          </mxGeometry>
        </mxCell>
        <mxCell id="Wj37CyBW8K_qZgoVUJ4D-60" value="ID" style="ellipse;whiteSpace=wrap;html=1;fontStyle=5" vertex="1" parent="Wj37CyBW8K_qZgoVUJ4D-1">
          <mxGeometry x="450" y="365" width="60" height="30" as="geometry" />
        </mxCell>
        <mxCell id="Wj37CyBW8K_qZgoVUJ4D-61" value="" style="endArrow=none;html=1;rounded=0;" edge="1" parent="Wj37CyBW8K_qZgoVUJ4D-1" source="Wj37CyBW8K_qZgoVUJ4D-20" target="Wj37CyBW8K_qZgoVUJ4D-60">
          <mxGeometry width="50" height="50" relative="1" as="geometry">
            <mxPoint x="1060" y="490" as="sourcePoint" />
            <mxPoint x="1034" y="400" as="targetPoint" />
          </mxGeometry>
        </mxCell>
        <mxCell id="Wj37CyBW8K_qZgoVUJ4D-62" value="Atrs." style="ellipse;whiteSpace=wrap;html=1;" vertex="1" parent="Wj37CyBW8K_qZgoVUJ4D-1">
          <mxGeometry x="730" y="270" width="50" height="30" as="geometry" />
        </mxCell>
        <mxCell id="Wj37CyBW8K_qZgoVUJ4D-63" value="" style="endArrow=none;html=1;rounded=0;" edge="1" parent="Wj37CyBW8K_qZgoVUJ4D-1" source="Wj37CyBW8K_qZgoVUJ4D-62" target="Wj37CyBW8K_qZgoVUJ4D-26">
          <mxGeometry width="50" height="50" relative="1" as="geometry">
            <mxPoint x="955" y="355" as="sourcePoint" />
            <mxPoint x="1005" y="305" as="targetPoint" />
          </mxGeometry>
        </mxCell>
        <mxCell id="Wj37CyBW8K_qZgoVUJ4D-64" value="Jugadores" style="ellipse;whiteSpace=wrap;html=1;" vertex="1" parent="Wj37CyBW8K_qZgoVUJ4D-1">
          <mxGeometry x="380" y="549.5" width="70" height="30" as="geometry" />
        </mxCell>
        <mxCell id="Wj37CyBW8K_qZgoVUJ4D-65" value="" style="endArrow=none;html=1;rounded=0;" edge="1" parent="Wj37CyBW8K_qZgoVUJ4D-1" source="Wj37CyBW8K_qZgoVUJ4D-64" target="Wj37CyBW8K_qZgoVUJ4D-4">
          <mxGeometry width="50" height="50" relative="1" as="geometry">
            <mxPoint x="-16" y="400" as="sourcePoint" />
            <mxPoint x="34" y="350" as="targetPoint" />
          </mxGeometry>
        </mxCell>
        <mxCell id="Wj37CyBW8K_qZgoVUJ4D-66" value="Inicio" style="ellipse;whiteSpace=wrap;html=1;" vertex="1" parent="Wj37CyBW8K_qZgoVUJ4D-1">
          <mxGeometry x="440" y="570" width="50" height="30" as="geometry" />
        </mxCell>
        <mxCell id="Wj37CyBW8K_qZgoVUJ4D-67" value="" style="endArrow=none;html=1;rounded=0;" edge="1" parent="Wj37CyBW8K_qZgoVUJ4D-1" source="Wj37CyBW8K_qZgoVUJ4D-66" target="Wj37CyBW8K_qZgoVUJ4D-4">
          <mxGeometry width="50" height="50" relative="1" as="geometry">
            <mxPoint x="481.459272301419" y="580.6986198820017" as="sourcePoint" />
            <mxPoint x="124" y="390" as="targetPoint" />
          </mxGeometry>
        </mxCell>
        <mxCell id="Wj37CyBW8K_qZgoVUJ4D-68" value="Fin" style="ellipse;whiteSpace=wrap;html=1;" vertex="1" parent="Wj37CyBW8K_qZgoVUJ4D-1">
          <mxGeometry x="484" y="549.5" width="40" height="30" as="geometry" />
        </mxCell>
        <mxCell id="Wj37CyBW8K_qZgoVUJ4D-69" value="" style="endArrow=none;html=1;rounded=0;" edge="1" parent="Wj37CyBW8K_qZgoVUJ4D-1" source="Wj37CyBW8K_qZgoVUJ4D-68" target="Wj37CyBW8K_qZgoVUJ4D-4">
          <mxGeometry width="50" height="50" relative="1" as="geometry">
            <mxPoint x="451" y="571" as="sourcePoint" />
            <mxPoint x="469" y="550" as="targetPoint" />
          </mxGeometry>
        </mxCell>
        <mxCell id="Wj37CyBW8K_qZgoVUJ4D-70" value="Estadio" style="ellipse;whiteSpace=wrap;html=1;fontStyle=5" vertex="1" parent="Wj37CyBW8K_qZgoVUJ4D-1">
          <mxGeometry x="96" y="266" width="60" height="30" as="geometry" />
        </mxCell>
        <mxCell id="Wj37CyBW8K_qZgoVUJ4D-71" value="" style="endArrow=none;html=1;rounded=0;" edge="1" parent="Wj37CyBW8K_qZgoVUJ4D-1" source="Wj37CyBW8K_qZgoVUJ4D-70" target="Wj37CyBW8K_qZgoVUJ4D-31">
          <mxGeometry width="50" height="50" relative="1" as="geometry">
            <mxPoint x="-90" y="330" as="sourcePoint" />
            <mxPoint x="-40" y="280" as="targetPoint" />
          </mxGeometry>
        </mxCell>
        <mxCell id="Wj37CyBW8K_qZgoVUJ4D-72" value="Conforma" style="rhombus;whiteSpace=wrap;html=1;fillColor=#fff2cc;strokeColor=#d6b656;" vertex="1" parent="Wj37CyBW8K_qZgoVUJ4D-1">
          <mxGeometry x="560" y="475" width="70" height="70" as="geometry" />
        </mxCell>
        <mxCell id="Wj37CyBW8K_qZgoVUJ4D-74" value="Juega&lt;div&gt;En&lt;/div&gt;" style="rhombus;whiteSpace=wrap;html=1;fillColor=#fff2cc;strokeColor=#d6b656;" vertex="1" parent="Wj37CyBW8K_qZgoVUJ4D-1">
          <mxGeometry x="265" y="385" width="70" height="70" as="geometry" />
        </mxCell>
        <mxCell id="Wj37CyBW8K_qZgoVUJ4D-76" value="Forma" style="rhombus;whiteSpace=wrap;html=1;fillColor=#fff2cc;strokeColor=#d6b656;" vertex="1" parent="Wj37CyBW8K_qZgoVUJ4D-1">
          <mxGeometry x="405" y="385" width="70" height="70" as="geometry" />
        </mxCell>
        <mxCell id="Wj37CyBW8K_qZgoVUJ4D-79" value="Fecha" style="ellipse;whiteSpace=wrap;html=1;fontStyle=5" vertex="1" parent="Wj37CyBW8K_qZgoVUJ4D-1">
          <mxGeometry x="670" y="270" width="50" height="30" as="geometry" />
        </mxCell>
        <mxCell id="Wj37CyBW8K_qZgoVUJ4D-80" value="" style="endArrow=none;html=1;rounded=0;" edge="1" parent="Wj37CyBW8K_qZgoVUJ4D-1" source="Wj37CyBW8K_qZgoVUJ4D-79" target="Wj37CyBW8K_qZgoVUJ4D-26">
          <mxGeometry width="50" height="50" relative="1" as="geometry">
            <mxPoint x="367" y="294" as="sourcePoint" />
            <mxPoint x="387" y="315" as="targetPoint" />
          </mxGeometry>
        </mxCell>
        <mxCell id="FkWFIKeJAtsUoXqclJcv-2" value="" style="group" vertex="1" connectable="0" parent="Wj37CyBW8K_qZgoVUJ4D-1">
          <mxGeometry x="40" y="780" width="760" height="150" as="geometry" />
        </mxCell>
        <mxCell id="Wj37CyBW8K_qZgoVUJ4D-2" value="&amp;nbsp; &amp;nbsp; Justificaciones:" style="rounded=0;whiteSpace=wrap;html=1;align=left;verticalAlign=top;fontSize=18;" vertex="1" parent="FkWFIKeJAtsUoXqclJcv-2">
          <mxGeometry width="760" height="150" as="geometry" />
        </mxCell>
        <mxCell id="Wj37CyBW8K_qZgoVUJ4D-13" value="1: Una Temporada y un plantel pueden concurrir sin pertenecer a una liga, pero si pertenecen, es sÃ³lo a una." style="text;html=1;align=left;verticalAlign=middle;resizable=0;points=[];autosize=1;strokeColor=none;fillColor=none;" vertex="1" parent="FkWFIKeJAtsUoXqclJcv-2">
          <mxGeometry y="30" width="600" height="30" as="geometry" />
        </mxCell>
        <mxCell id="Wj37CyBW8K_qZgoVUJ4D-14" value="&lt;div&gt;2: Una Liga y una Temporada concurren en uno o mÃ s planteles.&lt;br&gt;Si no existe un Plantel, no tiene sentido mencionar a la liga en la temporada.&lt;/div&gt;" style="text;html=1;align=left;verticalAlign=middle;resizable=0;points=[];autosize=1;strokeColor=none;fillColor=none;" vertex="1" parent="FkWFIKeJAtsUoXqclJcv-2">
          <mxGeometry y="60" width="430" height="40" as="geometry" />
        </mxCell>
        <mxCell id="Wj37CyBW8K_qZgoVUJ4D-15" value="&lt;div&gt;3: Un Plantel y una Liga concurren en varias temporadas; los planteles y la liga se pueden mantener a medida que pasan las temporadas.&lt;br&gt;No tiene sentido hablar de la concurrencia fuera de temporada.&lt;/div&gt;" style="text;html=1;align=left;verticalAlign=middle;resizable=0;points=[];autosize=1;strokeColor=none;fillColor=none;" vertex="1" parent="FkWFIKeJAtsUoXqclJcv-2">
          <mxGeometry y="100" width="760" height="40" as="geometry" />
        </mxCell>
        <mxCell id="ZON4W532Lqqv5-BqwU-X-0" value="Tiene&lt;div&gt;Varios&lt;/div&gt;" style="rhombus;whiteSpace=wrap;html=1;fillColor=#fff2cc;strokeColor=#d6b656;" vertex="1" parent="Wj37CyBW8K_qZgoVUJ4D-1">
          <mxGeometry x="685" y="385" width="70" height="70" as="geometry" />
        </mxCell>
        <mxCell id="I6IGK7EVYk0jbpL3YVw9-1" value="" style="endArrow=ERmandOne;html=1;rounded=0;endFill=0;startArrow=ERzeroToMany;startFill=0;entryX=0;entryY=0.25;entryDx=0;entryDy=0;exitX=1;exitY=0.25;exitDx=0;exitDy=0;" edge="1" parent="Wj37CyBW8K_qZgoVUJ4D-1" source="Wj37CyBW8K_qZgoVUJ4D-31" target="Wj37CyBW8K_qZgoVUJ4D-20">
          <mxGeometry width="50" height="50" relative="1" as="geometry">
            <mxPoint x="330" y="140" as="sourcePoint" />
            <mxPoint x="440" y="190" as="targetPoint" />
            <Array as="points">
              <mxPoint x="240" y="315" />
              <mxPoint x="240" y="290" />
              <mxPoint x="360" y="290" />
              <mxPoint x="360" y="315" />
            </Array>
          </mxGeometry>
        </mxCell>
        <mxCell id="I6IGK7EVYk0jbpL3YVw9-2" value="" style="endArrow=ERmandOne;html=1;rounded=0;endFill=0;startArrow=ERzeroToMany;startFill=0;entryX=0;entryY=0.5;entryDx=0;entryDy=0;exitX=1;exitY=0.5;exitDx=0;exitDy=0;" edge="1" parent="Wj37CyBW8K_qZgoVUJ4D-1" source="Wj37CyBW8K_qZgoVUJ4D-31" target="Wj37CyBW8K_qZgoVUJ4D-20">
          <mxGeometry width="50" height="50" relative="1" as="geometry">
            <mxPoint x="230" y="325" as="sourcePoint" />
            <mxPoint x="480" y="310" as="targetPoint" />
            <Array as="points" />
          </mxGeometry>
        </mxCell>
        <mxCell id="BxUBhkcPtxdbAIMHM5ru-0" value="Juega&lt;br style=&quot;font-size: 10px;&quot;&gt;Local" style="rhombus;whiteSpace=wrap;html=1;fillColor=#fff2cc;strokeColor=#d6b656;fontSize=10;" vertex="1" parent="Wj37CyBW8K_qZgoVUJ4D-1">
          <mxGeometry x="240" y="300" width="60" height="60" as="geometry" />
        </mxCell>
        <mxCell id="BxUBhkcPtxdbAIMHM5ru-2" value="Juega&lt;br style=&quot;font-size: 10px;&quot;&gt;Visitante" style="rhombus;whiteSpace=wrap;html=1;fillColor=#fff2cc;strokeColor=#d6b656;fontSize=10;" vertex="1" parent="Wj37CyBW8K_qZgoVUJ4D-1">
          <mxGeometry x="290" y="260" width="60" height="60" as="geometry" />
        </mxCell>
      </root>
    </mxGraphModel>
  </diagram>
  <diagram id="k4HLZ-wr1_cii9Xum-iM" name="MER Viejo">
    <mxGraphModel dx="1209" dy="931" grid="1" gridSize="10" guides="1" tooltips="1" connect="1" arrows="1" fold="1" page="0" pageScale="1" pageWidth="827" pageHeight="1169" math="0" shadow="0">
      <root>
        <mxCell id="0" />
        <mxCell id="1" parent="0" />
        <mxCell id="9kOfI8LIR8v8jxDoRxhc-71" value="jugador" style="shape=table;startSize=30;container=1;collapsible=1;childLayout=tableLayout;fixedRows=1;rowLines=0;fontStyle=1;align=center;resizeLast=1;html=1;fillColor=#dae8fc;strokeColor=#6c8ebf;" parent="1" vertex="1">
          <mxGeometry x="120" y="-140" width="180" height="110" as="geometry" />
        </mxCell>
        <mxCell id="9kOfI8LIR8v8jxDoRxhc-72" value="" style="shape=tableRow;horizontal=0;startSize=0;swimlaneHead=0;swimlaneBody=0;fillColor=none;collapsible=0;dropTarget=0;points=[[0,0.5],[1,0.5]];portConstraint=eastwest;top=0;left=0;right=0;bottom=1;" parent="9kOfI8LIR8v8jxDoRxhc-71" vertex="1">
          <mxGeometry y="30" width="180" height="30" as="geometry" />
        </mxCell>
        <mxCell id="9kOfI8LIR8v8jxDoRxhc-73" value="PK" style="shape=partialRectangle;connectable=0;fillColor=none;top=0;left=0;bottom=0;right=0;fontStyle=1;overflow=hidden;whiteSpace=wrap;html=1;" parent="9kOfI8LIR8v8jxDoRxhc-72" vertex="1">
          <mxGeometry width="30" height="30" as="geometry">
            <mxRectangle width="30" height="30" as="alternateBounds" />
          </mxGeometry>
        </mxCell>
        <mxCell id="9kOfI8LIR8v8jxDoRxhc-74" value="ID_Jugador" style="shape=partialRectangle;connectable=0;fillColor=none;top=0;left=0;bottom=0;right=0;align=left;spacingLeft=6;fontStyle=5;overflow=hidden;whiteSpace=wrap;html=1;" parent="9kOfI8LIR8v8jxDoRxhc-72" vertex="1">
          <mxGeometry x="30" width="150" height="30" as="geometry">
            <mxRectangle width="150" height="30" as="alternateBounds" />
          </mxGeometry>
        </mxCell>
        <mxCell id="9kOfI8LIR8v8jxDoRxhc-84" style="shape=tableRow;horizontal=0;startSize=0;swimlaneHead=0;swimlaneBody=0;fillColor=none;collapsible=0;dropTarget=0;points=[[0,0.5],[1,0.5]];portConstraint=eastwest;top=0;left=0;right=0;bottom=1;" parent="9kOfI8LIR8v8jxDoRxhc-71" vertex="1">
          <mxGeometry y="60" width="180" height="30" as="geometry" />
        </mxCell>
        <mxCell id="9kOfI8LIR8v8jxDoRxhc-85" value="FK" style="shape=partialRectangle;connectable=0;fillColor=none;top=0;left=0;bottom=0;right=0;fontStyle=1;overflow=hidden;whiteSpace=wrap;html=1;" parent="9kOfI8LIR8v8jxDoRxhc-84" vertex="1">
          <mxGeometry width="30" height="30" as="geometry">
            <mxRectangle width="30" height="30" as="alternateBounds" />
          </mxGeometry>
        </mxCell>
        <mxCell id="9kOfI8LIR8v8jxDoRxhc-86" value="ID_Equipo" style="shape=partialRectangle;connectable=0;fillColor=none;top=0;left=0;bottom=0;right=0;align=left;spacingLeft=6;fontStyle=5;overflow=hidden;whiteSpace=wrap;html=1;" parent="9kOfI8LIR8v8jxDoRxhc-84" vertex="1">
          <mxGeometry x="30" width="150" height="30" as="geometry">
            <mxRectangle width="150" height="30" as="alternateBounds" />
          </mxGeometry>
        </mxCell>
        <mxCell id="9kOfI8LIR8v8jxDoRxhc-150" style="shape=tableRow;horizontal=0;startSize=0;swimlaneHead=0;swimlaneBody=0;fillColor=none;collapsible=0;dropTarget=0;points=[[0,0.5],[1,0.5]];portConstraint=eastwest;top=0;left=0;right=0;bottom=1;" parent="9kOfI8LIR8v8jxDoRxhc-71" vertex="1">
          <mxGeometry y="90" width="180" height="20" as="geometry" />
        </mxCell>
        <mxCell id="9kOfI8LIR8v8jxDoRxhc-151" style="shape=partialRectangle;connectable=0;fillColor=none;top=0;left=0;bottom=0;right=0;fontStyle=0;overflow=hidden;whiteSpace=wrap;html=1;" parent="9kOfI8LIR8v8jxDoRxhc-150" vertex="1">
          <mxGeometry width="30" height="20" as="geometry">
            <mxRectangle width="30" height="20" as="alternateBounds" />
          </mxGeometry>
        </mxCell>
        <mxCell id="9kOfI8LIR8v8jxDoRxhc-152" value="Nombre_Jugador" style="shape=partialRectangle;connectable=0;fillColor=none;top=0;left=0;bottom=0;right=0;align=left;spacingLeft=6;fontStyle=0;overflow=hidden;whiteSpace=wrap;html=1;" parent="9kOfI8LIR8v8jxDoRxhc-150" vertex="1">
          <mxGeometry x="30" width="150" height="20" as="geometry">
            <mxRectangle width="150" height="20" as="alternateBounds" />
          </mxGeometry>
        </mxCell>
        <mxCell id="9kOfI8LIR8v8jxDoRxhc-90" value="atributos_jugador" style="shape=table;startSize=30;container=1;collapsible=1;childLayout=tableLayout;fixedRows=1;rowLines=0;fontStyle=1;align=center;resizeLast=1;html=1;fillColor=#ffe6cc;strokeColor=#d79b00;" parent="1" vertex="1">
          <mxGeometry x="340" y="-140" width="180" height="190" as="geometry" />
        </mxCell>
        <mxCell id="9kOfI8LIR8v8jxDoRxhc-91" value="" style="shape=tableRow;horizontal=0;startSize=0;swimlaneHead=0;swimlaneBody=0;fillColor=none;collapsible=0;dropTarget=0;points=[[0,0.5],[1,0.5]];portConstraint=eastwest;top=0;left=0;right=0;bottom=1;" parent="9kOfI8LIR8v8jxDoRxhc-90" vertex="1">
          <mxGeometry y="30" width="180" height="30" as="geometry" />
        </mxCell>
        <mxCell id="9kOfI8LIR8v8jxDoRxhc-92" value="PK1, FK 1" style="shape=partialRectangle;connectable=0;fillColor=none;top=0;left=0;bottom=0;right=0;fontStyle=1;overflow=hidden;whiteSpace=wrap;html=1;" parent="9kOfI8LIR8v8jxDoRxhc-91" vertex="1">
          <mxGeometry width="60" height="30" as="geometry">
            <mxRectangle width="60" height="30" as="alternateBounds" />
          </mxGeometry>
        </mxCell>
        <mxCell id="9kOfI8LIR8v8jxDoRxhc-93" value="ID_Jugador" style="shape=partialRectangle;connectable=0;fillColor=none;top=0;left=0;bottom=0;right=0;align=left;spacingLeft=6;fontStyle=5;overflow=hidden;whiteSpace=wrap;html=1;" parent="9kOfI8LIR8v8jxDoRxhc-91" vertex="1">
          <mxGeometry x="60" width="120" height="30" as="geometry">
            <mxRectangle width="120" height="30" as="alternateBounds" />
          </mxGeometry>
        </mxCell>
        <mxCell id="9kOfI8LIR8v8jxDoRxhc-94" style="shape=tableRow;horizontal=0;startSize=0;swimlaneHead=0;swimlaneBody=0;fillColor=none;collapsible=0;dropTarget=0;points=[[0,0.5],[1,0.5]];portConstraint=eastwest;top=0;left=0;right=0;bottom=1;" parent="9kOfI8LIR8v8jxDoRxhc-90" vertex="1">
          <mxGeometry y="60" width="180" height="30" as="geometry" />
        </mxCell>
        <mxCell id="9kOfI8LIR8v8jxDoRxhc-95" value="PK2" style="shape=partialRectangle;connectable=0;fillColor=none;top=0;left=0;bottom=0;right=0;fontStyle=1;overflow=hidden;whiteSpace=wrap;html=1;" parent="9kOfI8LIR8v8jxDoRxhc-94" vertex="1">
          <mxGeometry width="60" height="30" as="geometry">
            <mxRectangle width="60" height="30" as="alternateBounds" />
          </mxGeometry>
        </mxCell>
        <mxCell id="9kOfI8LIR8v8jxDoRxhc-96" value="Fecha" style="shape=partialRectangle;connectable=0;fillColor=none;top=0;left=0;bottom=0;right=0;align=left;spacingLeft=6;fontStyle=5;overflow=hidden;whiteSpace=wrap;html=1;" parent="9kOfI8LIR8v8jxDoRxhc-94" vertex="1">
          <mxGeometry x="60" width="120" height="30" as="geometry">
            <mxRectangle width="120" height="30" as="alternateBounds" />
          </mxGeometry>
        </mxCell>
        <mxCell id="9kOfI8LIR8v8jxDoRxhc-113" style="shape=tableRow;horizontal=0;startSize=0;swimlaneHead=0;swimlaneBody=0;fillColor=none;collapsible=0;dropTarget=0;points=[[0,0.5],[1,0.5]];portConstraint=eastwest;top=0;left=0;right=0;bottom=1;" parent="9kOfI8LIR8v8jxDoRxhc-90" vertex="1">
          <mxGeometry y="90" width="180" height="20" as="geometry" />
        </mxCell>
        <mxCell id="9kOfI8LIR8v8jxDoRxhc-114" style="shape=partialRectangle;connectable=0;fillColor=none;top=0;left=0;bottom=0;right=0;fontStyle=1;overflow=hidden;whiteSpace=wrap;html=1;" parent="9kOfI8LIR8v8jxDoRxhc-113" vertex="1">
          <mxGeometry width="60" height="20" as="geometry">
            <mxRectangle width="60" height="20" as="alternateBounds" />
          </mxGeometry>
        </mxCell>
        <mxCell id="9kOfI8LIR8v8jxDoRxhc-115" value="&lt;span style=&quot;&quot;&gt;Altura&lt;/span&gt;" style="shape=partialRectangle;connectable=0;fillColor=none;top=0;left=0;bottom=0;right=0;align=left;spacingLeft=6;fontStyle=0;overflow=hidden;whiteSpace=wrap;html=1;strokeColor=inherit;shadow=0;" parent="9kOfI8LIR8v8jxDoRxhc-113" vertex="1">
          <mxGeometry x="60" width="120" height="20" as="geometry">
            <mxRectangle width="120" height="20" as="alternateBounds" />
          </mxGeometry>
        </mxCell>
        <mxCell id="9kOfI8LIR8v8jxDoRxhc-144" style="shape=tableRow;horizontal=0;startSize=0;swimlaneHead=0;swimlaneBody=0;fillColor=none;collapsible=0;dropTarget=0;points=[[0,0.5],[1,0.5]];portConstraint=eastwest;top=0;left=0;right=0;bottom=1;" parent="9kOfI8LIR8v8jxDoRxhc-90" vertex="1">
          <mxGeometry y="110" width="180" height="20" as="geometry" />
        </mxCell>
        <mxCell id="9kOfI8LIR8v8jxDoRxhc-145" style="shape=partialRectangle;connectable=0;fillColor=none;top=0;left=0;bottom=0;right=0;fontStyle=1;overflow=hidden;whiteSpace=wrap;html=1;" parent="9kOfI8LIR8v8jxDoRxhc-144" vertex="1">
          <mxGeometry width="60" height="20" as="geometry">
            <mxRectangle width="60" height="20" as="alternateBounds" />
          </mxGeometry>
        </mxCell>
        <mxCell id="9kOfI8LIR8v8jxDoRxhc-146" value="Peso" style="shape=partialRectangle;connectable=0;fillColor=none;top=0;left=0;bottom=0;right=0;align=left;spacingLeft=6;fontStyle=0;overflow=hidden;whiteSpace=wrap;html=1;strokeColor=inherit;" parent="9kOfI8LIR8v8jxDoRxhc-144" vertex="1">
          <mxGeometry x="60" width="120" height="20" as="geometry">
            <mxRectangle width="120" height="20" as="alternateBounds" />
          </mxGeometry>
        </mxCell>
        <mxCell id="9kOfI8LIR8v8jxDoRxhc-141" style="shape=tableRow;horizontal=0;startSize=0;swimlaneHead=0;swimlaneBody=0;fillColor=none;collapsible=0;dropTarget=0;points=[[0,0.5],[1,0.5]];portConstraint=eastwest;top=0;left=0;right=0;bottom=1;" parent="9kOfI8LIR8v8jxDoRxhc-90" vertex="1">
          <mxGeometry y="130" width="180" height="20" as="geometry" />
        </mxCell>
        <mxCell id="9kOfI8LIR8v8jxDoRxhc-142" style="shape=partialRectangle;connectable=0;fillColor=none;top=0;left=0;bottom=0;right=0;fontStyle=1;overflow=hidden;whiteSpace=wrap;html=1;" parent="9kOfI8LIR8v8jxDoRxhc-141" vertex="1">
          <mxGeometry width="60" height="20" as="geometry">
            <mxRectangle width="60" height="20" as="alternateBounds" />
          </mxGeometry>
        </mxCell>
        <mxCell id="9kOfI8LIR8v8jxDoRxhc-143" value="Velocidad" style="shape=partialRectangle;connectable=0;fillColor=none;top=0;left=0;bottom=0;right=0;align=left;spacingLeft=6;fontStyle=0;overflow=hidden;whiteSpace=wrap;html=1;" parent="9kOfI8LIR8v8jxDoRxhc-141" vertex="1">
          <mxGeometry x="60" width="120" height="20" as="geometry">
            <mxRectangle width="120" height="20" as="alternateBounds" />
          </mxGeometry>
        </mxCell>
        <mxCell id="9kOfI8LIR8v8jxDoRxhc-138" style="shape=tableRow;horizontal=0;startSize=0;swimlaneHead=0;swimlaneBody=0;fillColor=none;collapsible=0;dropTarget=0;points=[[0,0.5],[1,0.5]];portConstraint=eastwest;top=0;left=0;right=0;bottom=1;" parent="9kOfI8LIR8v8jxDoRxhc-90" vertex="1">
          <mxGeometry y="150" width="180" height="20" as="geometry" />
        </mxCell>
        <mxCell id="9kOfI8LIR8v8jxDoRxhc-139" style="shape=partialRectangle;connectable=0;fillColor=none;top=0;left=0;bottom=0;right=0;fontStyle=1;overflow=hidden;whiteSpace=wrap;html=1;" parent="9kOfI8LIR8v8jxDoRxhc-138" vertex="1">
          <mxGeometry width="60" height="20" as="geometry">
            <mxRectangle width="60" height="20" as="alternateBounds" />
          </mxGeometry>
        </mxCell>
        <mxCell id="9kOfI8LIR8v8jxDoRxhc-140" value="Edad" style="shape=partialRectangle;connectable=0;fillColor=none;top=0;left=0;bottom=0;right=0;align=left;spacingLeft=6;fontStyle=0;overflow=hidden;whiteSpace=wrap;html=1;" parent="9kOfI8LIR8v8jxDoRxhc-138" vertex="1">
          <mxGeometry x="60" width="120" height="20" as="geometry">
            <mxRectangle width="120" height="20" as="alternateBounds" />
          </mxGeometry>
        </mxCell>
        <mxCell id="9kOfI8LIR8v8jxDoRxhc-147" style="shape=tableRow;horizontal=0;startSize=0;swimlaneHead=0;swimlaneBody=0;fillColor=none;collapsible=0;dropTarget=0;points=[[0,0.5],[1,0.5]];portConstraint=eastwest;top=0;left=0;right=0;bottom=1;" parent="9kOfI8LIR8v8jxDoRxhc-90" vertex="1">
          <mxGeometry y="170" width="180" height="20" as="geometry" />
        </mxCell>
        <mxCell id="9kOfI8LIR8v8jxDoRxhc-148" style="shape=partialRectangle;connectable=0;fillColor=none;top=0;left=0;bottom=0;right=0;fontStyle=1;overflow=hidden;whiteSpace=wrap;html=1;" parent="9kOfI8LIR8v8jxDoRxhc-147" vertex="1">
          <mxGeometry width="60" height="20" as="geometry">
            <mxRectangle width="60" height="20" as="alternateBounds" />
          </mxGeometry>
        </mxCell>
        <mxCell id="9kOfI8LIR8v8jxDoRxhc-149" style="shape=partialRectangle;connectable=0;fillColor=none;top=0;left=0;bottom=0;right=0;align=left;spacingLeft=6;fontStyle=0;overflow=hidden;whiteSpace=wrap;html=1;" parent="9kOfI8LIR8v8jxDoRxhc-147" vertex="1">
          <mxGeometry x="60" width="120" height="20" as="geometry">
            <mxRectangle width="120" height="20" as="alternateBounds" />
          </mxGeometry>
        </mxCell>
        <mxCell id="9kOfI8LIR8v8jxDoRxhc-154" value="equipo" style="shape=table;startSize=30;container=1;collapsible=1;childLayout=tableLayout;fixedRows=1;rowLines=0;fontStyle=1;align=center;resizeLast=1;html=1;fillColor=#dae8fc;strokeColor=#6c8ebf;" parent="1" vertex="1">
          <mxGeometry x="120" y="-10" width="180" height="110" as="geometry" />
        </mxCell>
        <mxCell id="9kOfI8LIR8v8jxDoRxhc-155" value="" style="shape=tableRow;horizontal=0;startSize=0;swimlaneHead=0;swimlaneBody=0;fillColor=none;collapsible=0;dropTarget=0;points=[[0,0.5],[1,0.5]];portConstraint=eastwest;top=0;left=0;right=0;bottom=1;" parent="9kOfI8LIR8v8jxDoRxhc-154" vertex="1">
          <mxGeometry y="30" width="180" height="30" as="geometry" />
        </mxCell>
        <mxCell id="9kOfI8LIR8v8jxDoRxhc-156" value="PK" style="shape=partialRectangle;connectable=0;fillColor=none;top=0;left=0;bottom=0;right=0;fontStyle=1;overflow=hidden;whiteSpace=wrap;html=1;" parent="9kOfI8LIR8v8jxDoRxhc-155" vertex="1">
          <mxGeometry width="30" height="30" as="geometry">
            <mxRectangle width="30" height="30" as="alternateBounds" />
          </mxGeometry>
        </mxCell>
        <mxCell id="9kOfI8LIR8v8jxDoRxhc-157" value="ID_Equipo" style="shape=partialRectangle;connectable=0;fillColor=none;top=0;left=0;bottom=0;right=0;align=left;spacingLeft=6;fontStyle=5;overflow=hidden;whiteSpace=wrap;html=1;" parent="9kOfI8LIR8v8jxDoRxhc-155" vertex="1">
          <mxGeometry x="30" width="150" height="30" as="geometry">
            <mxRectangle width="150" height="30" as="alternateBounds" />
          </mxGeometry>
        </mxCell>
        <mxCell id="9kOfI8LIR8v8jxDoRxhc-158" style="shape=tableRow;horizontal=0;startSize=0;swimlaneHead=0;swimlaneBody=0;fillColor=none;collapsible=0;dropTarget=0;points=[[0,0.5],[1,0.5]];portConstraint=eastwest;top=0;left=0;right=0;bottom=1;" parent="9kOfI8LIR8v8jxDoRxhc-154" vertex="1">
          <mxGeometry y="60" width="180" height="30" as="geometry" />
        </mxCell>
        <mxCell id="9kOfI8LIR8v8jxDoRxhc-159" value="FK" style="shape=partialRectangle;connectable=0;fillColor=none;top=0;left=0;bottom=0;right=0;fontStyle=1;overflow=hidden;whiteSpace=wrap;html=1;" parent="9kOfI8LIR8v8jxDoRxhc-158" vertex="1">
          <mxGeometry width="30" height="30" as="geometry">
            <mxRectangle width="30" height="30" as="alternateBounds" />
          </mxGeometry>
        </mxCell>
        <mxCell id="9kOfI8LIR8v8jxDoRxhc-160" value="ID_Liga" style="shape=partialRectangle;connectable=0;fillColor=none;top=0;left=0;bottom=0;right=0;align=left;spacingLeft=6;fontStyle=5;overflow=hidden;whiteSpace=wrap;html=1;" parent="9kOfI8LIR8v8jxDoRxhc-158" vertex="1">
          <mxGeometry x="30" width="150" height="30" as="geometry">
            <mxRectangle width="150" height="30" as="alternateBounds" />
          </mxGeometry>
        </mxCell>
        <mxCell id="9kOfI8LIR8v8jxDoRxhc-161" style="shape=tableRow;horizontal=0;startSize=0;swimlaneHead=0;swimlaneBody=0;fillColor=none;collapsible=0;dropTarget=0;points=[[0,0.5],[1,0.5]];portConstraint=eastwest;top=0;left=0;right=0;bottom=1;" parent="9kOfI8LIR8v8jxDoRxhc-154" vertex="1">
          <mxGeometry y="90" width="180" height="20" as="geometry" />
        </mxCell>
        <mxCell id="9kOfI8LIR8v8jxDoRxhc-162" style="shape=partialRectangle;connectable=0;fillColor=none;top=0;left=0;bottom=0;right=0;fontStyle=0;overflow=hidden;whiteSpace=wrap;html=1;" parent="9kOfI8LIR8v8jxDoRxhc-161" vertex="1">
          <mxGeometry width="30" height="20" as="geometry">
            <mxRectangle width="30" height="20" as="alternateBounds" />
          </mxGeometry>
        </mxCell>
        <mxCell id="9kOfI8LIR8v8jxDoRxhc-163" value="Nombre_Equipo" style="shape=partialRectangle;connectable=0;fillColor=none;top=0;left=0;bottom=0;right=0;align=left;spacingLeft=6;fontStyle=0;overflow=hidden;whiteSpace=wrap;html=1;" parent="9kOfI8LIR8v8jxDoRxhc-161" vertex="1">
          <mxGeometry x="30" width="150" height="20" as="geometry">
            <mxRectangle width="150" height="20" as="alternateBounds" />
          </mxGeometry>
        </mxCell>
        <mxCell id="9kOfI8LIR8v8jxDoRxhc-165" value="plantel" style="shape=table;startSize=30;container=1;collapsible=1;childLayout=tableLayout;fixedRows=1;rowLines=0;fontStyle=1;align=center;resizeLast=1;html=1;fillColor=#ffe6cc;strokeColor=#d79b00;" parent="1" vertex="1">
          <mxGeometry x="-100" y="-10" width="180" height="130" as="geometry" />
        </mxCell>
        <mxCell id="9kOfI8LIR8v8jxDoRxhc-166" value="" style="shape=tableRow;horizontal=0;startSize=0;swimlaneHead=0;swimlaneBody=0;fillColor=none;collapsible=0;dropTarget=0;points=[[0,0.5],[1,0.5]];portConstraint=eastwest;top=0;left=0;right=0;bottom=1;" parent="9kOfI8LIR8v8jxDoRxhc-165" vertex="1">
          <mxGeometry y="30" width="180" height="30" as="geometry" />
        </mxCell>
        <mxCell id="9kOfI8LIR8v8jxDoRxhc-167" value="PK1, FK1" style="shape=partialRectangle;connectable=0;fillColor=none;top=0;left=0;bottom=0;right=0;fontStyle=1;overflow=hidden;whiteSpace=wrap;html=1;" parent="9kOfI8LIR8v8jxDoRxhc-166" vertex="1">
          <mxGeometry width="60" height="30" as="geometry">
            <mxRectangle width="60" height="30" as="alternateBounds" />
          </mxGeometry>
        </mxCell>
        <mxCell id="9kOfI8LIR8v8jxDoRxhc-168" value="ID_Equipo" style="shape=partialRectangle;connectable=0;fillColor=none;top=0;left=0;bottom=0;right=0;align=left;spacingLeft=6;fontStyle=5;overflow=hidden;whiteSpace=wrap;html=1;" parent="9kOfI8LIR8v8jxDoRxhc-166" vertex="1">
          <mxGeometry x="60" width="120" height="30" as="geometry">
            <mxRectangle width="120" height="30" as="alternateBounds" />
          </mxGeometry>
        </mxCell>
        <mxCell id="9kOfI8LIR8v8jxDoRxhc-169" style="shape=tableRow;horizontal=0;startSize=0;swimlaneHead=0;swimlaneBody=0;fillColor=none;collapsible=0;dropTarget=0;points=[[0,0.5],[1,0.5]];portConstraint=eastwest;top=0;left=0;right=0;bottom=1;" parent="9kOfI8LIR8v8jxDoRxhc-165" vertex="1">
          <mxGeometry y="60" width="180" height="30" as="geometry" />
        </mxCell>
        <mxCell id="9kOfI8LIR8v8jxDoRxhc-170" value="PK2" style="shape=partialRectangle;connectable=0;fillColor=none;top=0;left=0;bottom=0;right=0;fontStyle=1;overflow=hidden;whiteSpace=wrap;html=1;" parent="9kOfI8LIR8v8jxDoRxhc-169" vertex="1">
          <mxGeometry width="60" height="30" as="geometry">
            <mxRectangle width="60" height="30" as="alternateBounds" />
          </mxGeometry>
        </mxCell>
        <mxCell id="9kOfI8LIR8v8jxDoRxhc-171" value="Temporada" style="shape=partialRectangle;connectable=0;fillColor=none;top=0;left=0;bottom=0;right=0;align=left;spacingLeft=6;fontStyle=5;overflow=hidden;whiteSpace=wrap;html=1;" parent="9kOfI8LIR8v8jxDoRxhc-169" vertex="1">
          <mxGeometry x="60" width="120" height="30" as="geometry">
            <mxRectangle width="120" height="30" as="alternateBounds" />
          </mxGeometry>
        </mxCell>
        <mxCell id="9kOfI8LIR8v8jxDoRxhc-172" style="shape=tableRow;horizontal=0;startSize=0;swimlaneHead=0;swimlaneBody=0;fillColor=none;collapsible=0;dropTarget=0;points=[[0,0.5],[1,0.5]];portConstraint=eastwest;top=0;left=0;right=0;bottom=1;" parent="9kOfI8LIR8v8jxDoRxhc-165" vertex="1">
          <mxGeometry y="90" width="180" height="20" as="geometry" />
        </mxCell>
        <mxCell id="9kOfI8LIR8v8jxDoRxhc-173" value="" style="shape=partialRectangle;connectable=0;fillColor=none;top=0;left=0;bottom=0;right=0;fontStyle=0;overflow=hidden;whiteSpace=wrap;html=1;" parent="9kOfI8LIR8v8jxDoRxhc-172" vertex="1">
          <mxGeometry width="60" height="20" as="geometry">
            <mxRectangle width="60" height="20" as="alternateBounds" />
          </mxGeometry>
        </mxCell>
        <mxCell id="9kOfI8LIR8v8jxDoRxhc-174" value="Fecha_Inicio" style="shape=partialRectangle;connectable=0;fillColor=none;top=0;left=0;bottom=0;right=0;align=left;spacingLeft=6;fontStyle=0;overflow=hidden;whiteSpace=wrap;html=1;" parent="9kOfI8LIR8v8jxDoRxhc-172" vertex="1">
          <mxGeometry x="60" width="120" height="20" as="geometry">
            <mxRectangle width="120" height="20" as="alternateBounds" />
          </mxGeometry>
        </mxCell>
        <mxCell id="9kOfI8LIR8v8jxDoRxhc-252" style="shape=tableRow;horizontal=0;startSize=0;swimlaneHead=0;swimlaneBody=0;fillColor=none;collapsible=0;dropTarget=0;points=[[0,0.5],[1,0.5]];portConstraint=eastwest;top=0;left=0;right=0;bottom=1;" parent="9kOfI8LIR8v8jxDoRxhc-165" vertex="1">
          <mxGeometry y="110" width="180" height="20" as="geometry" />
        </mxCell>
        <mxCell id="9kOfI8LIR8v8jxDoRxhc-253" style="shape=partialRectangle;connectable=0;fillColor=none;top=0;left=0;bottom=0;right=0;fontStyle=0;overflow=hidden;whiteSpace=wrap;html=1;" parent="9kOfI8LIR8v8jxDoRxhc-252" vertex="1">
          <mxGeometry width="60" height="20" as="geometry">
            <mxRectangle width="60" height="20" as="alternateBounds" />
          </mxGeometry>
        </mxCell>
        <mxCell id="9kOfI8LIR8v8jxDoRxhc-254" value="Fecha_Final" style="shape=partialRectangle;connectable=0;fillColor=none;top=0;left=0;bottom=0;right=0;align=left;spacingLeft=6;fontStyle=0;overflow=hidden;whiteSpace=wrap;html=1;" parent="9kOfI8LIR8v8jxDoRxhc-252" vertex="1">
          <mxGeometry x="60" width="120" height="20" as="geometry">
            <mxRectangle width="120" height="20" as="alternateBounds" />
          </mxGeometry>
        </mxCell>
        <mxCell id="9kOfI8LIR8v8jxDoRxhc-176" style="edgeStyle=orthogonalEdgeStyle;rounded=0;orthogonalLoop=1;jettySize=auto;html=1;exitX=1;exitY=0.5;exitDx=0;exitDy=0;entryX=0;entryY=0.5;entryDx=0;entryDy=0;" parent="1" source="9kOfI8LIR8v8jxDoRxhc-166" target="9kOfI8LIR8v8jxDoRxhc-155" edge="1">
          <mxGeometry relative="1" as="geometry" />
        </mxCell>
        <mxCell id="9kOfI8LIR8v8jxDoRxhc-178" value="partido" style="shape=table;startSize=30;container=1;collapsible=1;childLayout=tableLayout;fixedRows=1;rowLines=0;fontStyle=1;align=center;resizeLast=1;html=1;fillColor=#dae8fc;strokeColor=#6c8ebf;" parent="1" vertex="1">
          <mxGeometry x="120" y="120" width="180" height="190" as="geometry" />
        </mxCell>
        <mxCell id="9kOfI8LIR8v8jxDoRxhc-179" value="" style="shape=tableRow;horizontal=0;startSize=0;swimlaneHead=0;swimlaneBody=0;fillColor=none;collapsible=0;dropTarget=0;points=[[0,0.5],[1,0.5]];portConstraint=eastwest;top=0;left=0;right=0;bottom=1;" parent="9kOfI8LIR8v8jxDoRxhc-178" vertex="1">
          <mxGeometry y="30" width="180" height="30" as="geometry" />
        </mxCell>
        <mxCell id="9kOfI8LIR8v8jxDoRxhc-180" value="PK1, FK1" style="shape=partialRectangle;connectable=0;fillColor=none;top=0;left=0;bottom=0;right=0;fontStyle=1;overflow=hidden;whiteSpace=wrap;html=1;" parent="9kOfI8LIR8v8jxDoRxhc-179" vertex="1">
          <mxGeometry width="60" height="30" as="geometry">
            <mxRectangle width="60" height="30" as="alternateBounds" />
          </mxGeometry>
        </mxCell>
        <mxCell id="9kOfI8LIR8v8jxDoRxhc-181" value="ID_Liga" style="shape=partialRectangle;connectable=0;fillColor=none;top=0;left=0;bottom=0;right=0;align=left;spacingLeft=6;fontStyle=5;overflow=hidden;whiteSpace=wrap;html=1;" parent="9kOfI8LIR8v8jxDoRxhc-179" vertex="1">
          <mxGeometry x="60" width="120" height="30" as="geometry">
            <mxRectangle width="120" height="30" as="alternateBounds" />
          </mxGeometry>
        </mxCell>
        <mxCell id="9kOfI8LIR8v8jxDoRxhc-182" style="shape=tableRow;horizontal=0;startSize=0;swimlaneHead=0;swimlaneBody=0;fillColor=none;collapsible=0;dropTarget=0;points=[[0,0.5],[1,0.5]];portConstraint=eastwest;top=0;left=0;right=0;bottom=1;" parent="9kOfI8LIR8v8jxDoRxhc-178" vertex="1">
          <mxGeometry y="60" width="180" height="30" as="geometry" />
        </mxCell>
        <mxCell id="9kOfI8LIR8v8jxDoRxhc-183" value="PK2" style="shape=partialRectangle;connectable=0;fillColor=none;top=0;left=0;bottom=0;right=0;fontStyle=1;overflow=hidden;whiteSpace=wrap;html=1;" parent="9kOfI8LIR8v8jxDoRxhc-182" vertex="1">
          <mxGeometry width="60" height="30" as="geometry">
            <mxRectangle width="60" height="30" as="alternateBounds" />
          </mxGeometry>
        </mxCell>
        <mxCell id="9kOfI8LIR8v8jxDoRxhc-184" value="Fecha" style="shape=partialRectangle;connectable=0;fillColor=none;top=0;left=0;bottom=0;right=0;align=left;spacingLeft=6;fontStyle=5;overflow=hidden;whiteSpace=wrap;html=1;" parent="9kOfI8LIR8v8jxDoRxhc-182" vertex="1">
          <mxGeometry x="60" width="120" height="30" as="geometry">
            <mxRectangle width="120" height="30" as="alternateBounds" />
          </mxGeometry>
        </mxCell>
        <mxCell id="9kOfI8LIR8v8jxDoRxhc-209" style="shape=tableRow;horizontal=0;startSize=0;swimlaneHead=0;swimlaneBody=0;fillColor=none;collapsible=0;dropTarget=0;points=[[0,0.5],[1,0.5]];portConstraint=eastwest;top=0;left=0;right=0;bottom=1;" parent="9kOfI8LIR8v8jxDoRxhc-178" vertex="1">
          <mxGeometry y="90" width="180" height="20" as="geometry" />
        </mxCell>
        <mxCell id="9kOfI8LIR8v8jxDoRxhc-210" value="FK3" style="shape=partialRectangle;connectable=0;fillColor=none;top=0;left=0;bottom=0;right=0;fontStyle=1;overflow=hidden;whiteSpace=wrap;html=1;" parent="9kOfI8LIR8v8jxDoRxhc-209" vertex="1">
          <mxGeometry width="60" height="20" as="geometry">
            <mxRectangle width="60" height="20" as="alternateBounds" />
          </mxGeometry>
        </mxCell>
        <mxCell id="9kOfI8LIR8v8jxDoRxhc-211" value="Equipo_Local" style="shape=partialRectangle;connectable=0;fillColor=none;top=0;left=0;bottom=0;right=0;align=left;spacingLeft=6;fontStyle=5;overflow=hidden;whiteSpace=wrap;html=1;strokeColor=inherit;shadow=0;" parent="9kOfI8LIR8v8jxDoRxhc-209" vertex="1">
          <mxGeometry x="60" width="120" height="20" as="geometry">
            <mxRectangle width="120" height="20" as="alternateBounds" />
          </mxGeometry>
        </mxCell>
        <mxCell id="9kOfI8LIR8v8jxDoRxhc-206" style="shape=tableRow;horizontal=0;startSize=0;swimlaneHead=0;swimlaneBody=0;fillColor=none;collapsible=0;dropTarget=0;points=[[0,0.5],[1,0.5]];portConstraint=eastwest;top=0;left=0;right=0;bottom=1;" parent="9kOfI8LIR8v8jxDoRxhc-178" vertex="1">
          <mxGeometry y="110" width="180" height="20" as="geometry" />
        </mxCell>
        <mxCell id="9kOfI8LIR8v8jxDoRxhc-207" value="FK4" style="shape=partialRectangle;connectable=0;fillColor=none;top=0;left=0;bottom=0;right=0;fontStyle=1;overflow=hidden;whiteSpace=wrap;html=1;" parent="9kOfI8LIR8v8jxDoRxhc-206" vertex="1">
          <mxGeometry width="60" height="20" as="geometry">
            <mxRectangle width="60" height="20" as="alternateBounds" />
          </mxGeometry>
        </mxCell>
        <mxCell id="9kOfI8LIR8v8jxDoRxhc-208" value="Equipo_Visitante" style="shape=partialRectangle;connectable=0;fillColor=none;top=0;left=0;bottom=0;right=0;align=left;spacingLeft=6;fontStyle=5;overflow=hidden;whiteSpace=wrap;html=1;strokeColor=inherit;shadow=0;" parent="9kOfI8LIR8v8jxDoRxhc-206" vertex="1">
          <mxGeometry x="60" width="120" height="20" as="geometry">
            <mxRectangle width="120" height="20" as="alternateBounds" />
          </mxGeometry>
        </mxCell>
        <mxCell id="9kOfI8LIR8v8jxDoRxhc-188" style="shape=tableRow;horizontal=0;startSize=0;swimlaneHead=0;swimlaneBody=0;fillColor=none;collapsible=0;dropTarget=0;points=[[0,0.5],[1,0.5]];portConstraint=eastwest;top=0;left=0;right=0;bottom=1;" parent="9kOfI8LIR8v8jxDoRxhc-178" vertex="1">
          <mxGeometry y="130" width="180" height="20" as="geometry" />
        </mxCell>
        <mxCell id="9kOfI8LIR8v8jxDoRxhc-189" value="" style="shape=partialRectangle;connectable=0;fillColor=none;top=0;left=0;bottom=0;right=0;fontStyle=1;overflow=hidden;whiteSpace=wrap;html=1;" parent="9kOfI8LIR8v8jxDoRxhc-188" vertex="1">
          <mxGeometry width="60" height="20" as="geometry">
            <mxRectangle width="60" height="20" as="alternateBounds" />
          </mxGeometry>
        </mxCell>
        <mxCell id="9kOfI8LIR8v8jxDoRxhc-190" value="Resultado" style="shape=partialRectangle;connectable=0;fillColor=none;top=0;left=0;bottom=0;right=0;align=left;spacingLeft=6;fontStyle=0;overflow=hidden;whiteSpace=wrap;html=1;strokeColor=inherit;" parent="9kOfI8LIR8v8jxDoRxhc-188" vertex="1">
          <mxGeometry x="60" width="120" height="20" as="geometry">
            <mxRectangle width="120" height="20" as="alternateBounds" />
          </mxGeometry>
        </mxCell>
        <mxCell id="9kOfI8LIR8v8jxDoRxhc-191" style="shape=tableRow;horizontal=0;startSize=0;swimlaneHead=0;swimlaneBody=0;fillColor=none;collapsible=0;dropTarget=0;points=[[0,0.5],[1,0.5]];portConstraint=eastwest;top=0;left=0;right=0;bottom=1;" parent="9kOfI8LIR8v8jxDoRxhc-178" vertex="1">
          <mxGeometry y="150" width="180" height="20" as="geometry" />
        </mxCell>
        <mxCell id="9kOfI8LIR8v8jxDoRxhc-192" value="" style="shape=partialRectangle;connectable=0;fillColor=none;top=0;left=0;bottom=0;right=0;fontStyle=1;overflow=hidden;whiteSpace=wrap;html=1;" parent="9kOfI8LIR8v8jxDoRxhc-191" vertex="1">
          <mxGeometry width="60" height="20" as="geometry">
            <mxRectangle width="60" height="20" as="alternateBounds" />
          </mxGeometry>
        </mxCell>
        <mxCell id="9kOfI8LIR8v8jxDoRxhc-193" value="Goles_Local" style="shape=partialRectangle;connectable=0;fillColor=none;top=0;left=0;bottom=0;right=0;align=left;spacingLeft=6;fontStyle=0;overflow=hidden;whiteSpace=wrap;html=1;" parent="9kOfI8LIR8v8jxDoRxhc-191" vertex="1">
          <mxGeometry x="60" width="120" height="20" as="geometry">
            <mxRectangle width="120" height="20" as="alternateBounds" />
          </mxGeometry>
        </mxCell>
        <mxCell id="9kOfI8LIR8v8jxDoRxhc-194" style="shape=tableRow;horizontal=0;startSize=0;swimlaneHead=0;swimlaneBody=0;fillColor=none;collapsible=0;dropTarget=0;points=[[0,0.5],[1,0.5]];portConstraint=eastwest;top=0;left=0;right=0;bottom=1;" parent="9kOfI8LIR8v8jxDoRxhc-178" vertex="1">
          <mxGeometry y="170" width="180" height="20" as="geometry" />
        </mxCell>
        <mxCell id="9kOfI8LIR8v8jxDoRxhc-195" value="" style="shape=partialRectangle;connectable=0;fillColor=none;top=0;left=0;bottom=0;right=0;fontStyle=1;overflow=hidden;whiteSpace=wrap;html=1;" parent="9kOfI8LIR8v8jxDoRxhc-194" vertex="1">
          <mxGeometry width="60" height="20" as="geometry">
            <mxRectangle width="60" height="20" as="alternateBounds" />
          </mxGeometry>
        </mxCell>
        <mxCell id="9kOfI8LIR8v8jxDoRxhc-196" value="Goles_Visitante" style="shape=partialRectangle;connectable=0;fillColor=none;top=0;left=0;bottom=0;right=0;align=left;spacingLeft=6;fontStyle=0;overflow=hidden;whiteSpace=wrap;html=1;" parent="9kOfI8LIR8v8jxDoRxhc-194" vertex="1">
          <mxGeometry x="60" width="120" height="20" as="geometry">
            <mxRectangle width="120" height="20" as="alternateBounds" />
          </mxGeometry>
        </mxCell>
        <mxCell id="9kOfI8LIR8v8jxDoRxhc-212" value="Liga" style="shape=table;startSize=30;container=1;collapsible=1;childLayout=tableLayout;fixedRows=1;rowLines=0;fontStyle=1;align=center;resizeLast=1;html=1;fillColor=#d5e8d4;strokeColor=#82b366;" parent="1" vertex="1">
          <mxGeometry x="340" y="120" width="180" height="110" as="geometry" />
        </mxCell>
        <mxCell id="9kOfI8LIR8v8jxDoRxhc-213" value="" style="shape=tableRow;horizontal=0;startSize=0;swimlaneHead=0;swimlaneBody=0;fillColor=none;collapsible=0;dropTarget=0;points=[[0,0.5],[1,0.5]];portConstraint=eastwest;top=0;left=0;right=0;bottom=1;" parent="9kOfI8LIR8v8jxDoRxhc-212" vertex="1">
          <mxGeometry y="30" width="180" height="30" as="geometry" />
        </mxCell>
        <mxCell id="9kOfI8LIR8v8jxDoRxhc-214" value="PK" style="shape=partialRectangle;connectable=0;fillColor=none;top=0;left=0;bottom=0;right=0;fontStyle=1;overflow=hidden;whiteSpace=wrap;html=1;" parent="9kOfI8LIR8v8jxDoRxhc-213" vertex="1">
          <mxGeometry width="30" height="30" as="geometry">
            <mxRectangle width="30" height="30" as="alternateBounds" />
          </mxGeometry>
        </mxCell>
        <mxCell id="9kOfI8LIR8v8jxDoRxhc-215" value="ID_Liga" style="shape=partialRectangle;connectable=0;fillColor=none;top=0;left=0;bottom=0;right=0;align=left;spacingLeft=6;fontStyle=5;overflow=hidden;whiteSpace=wrap;html=1;" parent="9kOfI8LIR8v8jxDoRxhc-213" vertex="1">
          <mxGeometry x="30" width="150" height="30" as="geometry">
            <mxRectangle width="150" height="30" as="alternateBounds" />
          </mxGeometry>
        </mxCell>
        <mxCell id="9kOfI8LIR8v8jxDoRxhc-216" style="shape=tableRow;horizontal=0;startSize=0;swimlaneHead=0;swimlaneBody=0;fillColor=none;collapsible=0;dropTarget=0;points=[[0,0.5],[1,0.5]];portConstraint=eastwest;top=0;left=0;right=0;bottom=1;" parent="9kOfI8LIR8v8jxDoRxhc-212" vertex="1">
          <mxGeometry y="60" width="180" height="30" as="geometry" />
        </mxCell>
        <mxCell id="9kOfI8LIR8v8jxDoRxhc-217" value="FK" style="shape=partialRectangle;connectable=0;fillColor=none;top=0;left=0;bottom=0;right=0;fontStyle=1;overflow=hidden;whiteSpace=wrap;html=1;" parent="9kOfI8LIR8v8jxDoRxhc-216" vertex="1">
          <mxGeometry width="30" height="30" as="geometry">
            <mxRectangle width="30" height="30" as="alternateBounds" />
          </mxGeometry>
        </mxCell>
        <mxCell id="9kOfI8LIR8v8jxDoRxhc-218" value="ID_Pais" style="shape=partialRectangle;connectable=0;fillColor=none;top=0;left=0;bottom=0;right=0;align=left;spacingLeft=6;fontStyle=5;overflow=hidden;whiteSpace=wrap;html=1;" parent="9kOfI8LIR8v8jxDoRxhc-216" vertex="1">
          <mxGeometry x="30" width="150" height="30" as="geometry">
            <mxRectangle width="150" height="30" as="alternateBounds" />
          </mxGeometry>
        </mxCell>
        <mxCell id="9kOfI8LIR8v8jxDoRxhc-219" style="shape=tableRow;horizontal=0;startSize=0;swimlaneHead=0;swimlaneBody=0;fillColor=none;collapsible=0;dropTarget=0;points=[[0,0.5],[1,0.5]];portConstraint=eastwest;top=0;left=0;right=0;bottom=1;" parent="9kOfI8LIR8v8jxDoRxhc-212" vertex="1">
          <mxGeometry y="90" width="180" height="20" as="geometry" />
        </mxCell>
        <mxCell id="9kOfI8LIR8v8jxDoRxhc-220" style="shape=partialRectangle;connectable=0;fillColor=none;top=0;left=0;bottom=0;right=0;fontStyle=0;overflow=hidden;whiteSpace=wrap;html=1;" parent="9kOfI8LIR8v8jxDoRxhc-219" vertex="1">
          <mxGeometry width="30" height="20" as="geometry">
            <mxRectangle width="30" height="20" as="alternateBounds" />
          </mxGeometry>
        </mxCell>
        <mxCell id="9kOfI8LIR8v8jxDoRxhc-221" value="Nombre_Liga" style="shape=partialRectangle;connectable=0;fillColor=none;top=0;left=0;bottom=0;right=0;align=left;spacingLeft=6;fontStyle=0;overflow=hidden;whiteSpace=wrap;html=1;" parent="9kOfI8LIR8v8jxDoRxhc-219" vertex="1">
          <mxGeometry x="30" width="150" height="20" as="geometry">
            <mxRectangle width="150" height="20" as="alternateBounds" />
          </mxGeometry>
        </mxCell>
        <mxCell id="9kOfI8LIR8v8jxDoRxhc-222" style="edgeStyle=orthogonalEdgeStyle;rounded=0;orthogonalLoop=1;jettySize=auto;html=1;exitX=1;exitY=0.5;exitDx=0;exitDy=0;entryX=0;entryY=0.5;entryDx=0;entryDy=0;" parent="1" source="9kOfI8LIR8v8jxDoRxhc-179" target="9kOfI8LIR8v8jxDoRxhc-213" edge="1">
          <mxGeometry relative="1" as="geometry" />
        </mxCell>
        <mxCell id="9kOfI8LIR8v8jxDoRxhc-223" value="Pais" style="shape=table;startSize=30;container=1;collapsible=1;childLayout=tableLayout;fixedRows=1;rowLines=0;fontStyle=1;align=center;resizeLast=1;html=1;fillColor=#d5e8d4;strokeColor=#82b366;" parent="1" vertex="1">
          <mxGeometry x="340" y="250" width="180" height="80" as="geometry" />
        </mxCell>
        <mxCell id="9kOfI8LIR8v8jxDoRxhc-224" value="" style="shape=tableRow;horizontal=0;startSize=0;swimlaneHead=0;swimlaneBody=0;fillColor=none;collapsible=0;dropTarget=0;points=[[0,0.5],[1,0.5]];portConstraint=eastwest;top=0;left=0;right=0;bottom=1;" parent="9kOfI8LIR8v8jxDoRxhc-223" vertex="1">
          <mxGeometry y="30" width="180" height="30" as="geometry" />
        </mxCell>
        <mxCell id="9kOfI8LIR8v8jxDoRxhc-225" value="PK" style="shape=partialRectangle;connectable=0;fillColor=none;top=0;left=0;bottom=0;right=0;fontStyle=1;overflow=hidden;whiteSpace=wrap;html=1;" parent="9kOfI8LIR8v8jxDoRxhc-224" vertex="1">
          <mxGeometry width="30" height="30" as="geometry">
            <mxRectangle width="30" height="30" as="alternateBounds" />
          </mxGeometry>
        </mxCell>
        <mxCell id="9kOfI8LIR8v8jxDoRxhc-226" value="ID_Pais" style="shape=partialRectangle;connectable=0;fillColor=none;top=0;left=0;bottom=0;right=0;align=left;spacingLeft=6;fontStyle=5;overflow=hidden;whiteSpace=wrap;html=1;" parent="9kOfI8LIR8v8jxDoRxhc-224" vertex="1">
          <mxGeometry x="30" width="150" height="30" as="geometry">
            <mxRectangle width="150" height="30" as="alternateBounds" />
          </mxGeometry>
        </mxCell>
        <mxCell id="9kOfI8LIR8v8jxDoRxhc-230" style="shape=tableRow;horizontal=0;startSize=0;swimlaneHead=0;swimlaneBody=0;fillColor=none;collapsible=0;dropTarget=0;points=[[0,0.5],[1,0.5]];portConstraint=eastwest;top=0;left=0;right=0;bottom=1;" parent="9kOfI8LIR8v8jxDoRxhc-223" vertex="1">
          <mxGeometry y="60" width="180" height="20" as="geometry" />
        </mxCell>
        <mxCell id="9kOfI8LIR8v8jxDoRxhc-231" style="shape=partialRectangle;connectable=0;fillColor=none;top=0;left=0;bottom=0;right=0;fontStyle=0;overflow=hidden;whiteSpace=wrap;html=1;" parent="9kOfI8LIR8v8jxDoRxhc-230" vertex="1">
          <mxGeometry width="30" height="20" as="geometry">
            <mxRectangle width="30" height="20" as="alternateBounds" />
          </mxGeometry>
        </mxCell>
        <mxCell id="9kOfI8LIR8v8jxDoRxhc-232" value="Nombre_Pais" style="shape=partialRectangle;connectable=0;fillColor=none;top=0;left=0;bottom=0;right=0;align=left;spacingLeft=6;fontStyle=0;overflow=hidden;whiteSpace=wrap;html=1;" parent="9kOfI8LIR8v8jxDoRxhc-230" vertex="1">
          <mxGeometry x="30" width="150" height="20" as="geometry">
            <mxRectangle width="150" height="20" as="alternateBounds" />
          </mxGeometry>
        </mxCell>
        <mxCell id="9kOfI8LIR8v8jxDoRxhc-233" style="edgeStyle=orthogonalEdgeStyle;rounded=0;orthogonalLoop=1;jettySize=auto;html=1;exitX=1;exitY=0.5;exitDx=0;exitDy=0;entryX=1;entryY=0.5;entryDx=0;entryDy=0;" parent="1" source="9kOfI8LIR8v8jxDoRxhc-216" target="9kOfI8LIR8v8jxDoRxhc-224" edge="1">
          <mxGeometry relative="1" as="geometry" />
        </mxCell>
        <mxCell id="9kOfI8LIR8v8jxDoRxhc-235" style="edgeStyle=orthogonalEdgeStyle;rounded=0;orthogonalLoop=1;jettySize=auto;html=1;exitX=1;exitY=0.5;exitDx=0;exitDy=0;entryX=0;entryY=0.5;entryDx=0;entryDy=0;" parent="1" source="9kOfI8LIR8v8jxDoRxhc-158" target="9kOfI8LIR8v8jxDoRxhc-213" edge="1">
          <mxGeometry relative="1" as="geometry" />
        </mxCell>
        <mxCell id="9kOfI8LIR8v8jxDoRxhc-236" style="edgeStyle=orthogonalEdgeStyle;rounded=0;orthogonalLoop=1;jettySize=auto;html=1;exitX=0;exitY=0.5;exitDx=0;exitDy=0;entryX=0;entryY=0.5;entryDx=0;entryDy=0;" parent="1" source="9kOfI8LIR8v8jxDoRxhc-84" target="9kOfI8LIR8v8jxDoRxhc-155" edge="1">
          <mxGeometry relative="1" as="geometry" />
        </mxCell>
        <mxCell id="9kOfI8LIR8v8jxDoRxhc-237" value="jugador_temporada" style="shape=table;startSize=30;container=1;collapsible=1;childLayout=tableLayout;fixedRows=1;rowLines=0;fontStyle=1;align=center;resizeLast=1;html=1;fillColor=#CCCCCC;" parent="1" vertex="1">
          <mxGeometry x="-100" y="-140" width="180" height="90" as="geometry" />
        </mxCell>
        <mxCell id="9kOfI8LIR8v8jxDoRxhc-238" value="" style="shape=tableRow;horizontal=0;startSize=0;swimlaneHead=0;swimlaneBody=0;fillColor=none;collapsible=0;dropTarget=0;points=[[0,0.5],[1,0.5]];portConstraint=eastwest;top=0;left=0;right=0;bottom=1;" parent="9kOfI8LIR8v8jxDoRxhc-237" vertex="1">
          <mxGeometry y="30" width="180" height="30" as="geometry" />
        </mxCell>
        <mxCell id="9kOfI8LIR8v8jxDoRxhc-239" value="PK1, FK1" style="shape=partialRectangle;connectable=0;fillColor=none;top=0;left=0;bottom=0;right=0;fontStyle=1;overflow=hidden;whiteSpace=wrap;html=1;" parent="9kOfI8LIR8v8jxDoRxhc-238" vertex="1">
          <mxGeometry width="60" height="30" as="geometry">
            <mxRectangle width="60" height="30" as="alternateBounds" />
          </mxGeometry>
        </mxCell>
        <mxCell id="9kOfI8LIR8v8jxDoRxhc-240" value="ID_Jugador" style="shape=partialRectangle;connectable=0;fillColor=none;top=0;left=0;bottom=0;right=0;align=left;spacingLeft=6;fontStyle=5;overflow=hidden;whiteSpace=wrap;html=1;" parent="9kOfI8LIR8v8jxDoRxhc-238" vertex="1">
          <mxGeometry x="60" width="120" height="30" as="geometry">
            <mxRectangle width="120" height="30" as="alternateBounds" />
          </mxGeometry>
        </mxCell>
        <mxCell id="9kOfI8LIR8v8jxDoRxhc-241" style="shape=tableRow;horizontal=0;startSize=0;swimlaneHead=0;swimlaneBody=0;fillColor=none;collapsible=0;dropTarget=0;points=[[0,0.5],[1,0.5]];portConstraint=eastwest;top=0;left=0;right=0;bottom=1;" parent="9kOfI8LIR8v8jxDoRxhc-237" vertex="1">
          <mxGeometry y="60" width="180" height="30" as="geometry" />
        </mxCell>
        <mxCell id="9kOfI8LIR8v8jxDoRxhc-242" value="PK2, FK2" style="shape=partialRectangle;connectable=0;fillColor=none;top=0;left=0;bottom=0;right=0;fontStyle=1;overflow=hidden;whiteSpace=wrap;html=1;" parent="9kOfI8LIR8v8jxDoRxhc-241" vertex="1">
          <mxGeometry width="60" height="30" as="geometry">
            <mxRectangle width="60" height="30" as="alternateBounds" />
          </mxGeometry>
        </mxCell>
        <mxCell id="9kOfI8LIR8v8jxDoRxhc-243" value="Temporada" style="shape=partialRectangle;connectable=0;fillColor=none;top=0;left=0;bottom=0;right=0;align=left;spacingLeft=6;fontStyle=5;overflow=hidden;whiteSpace=wrap;html=1;" parent="9kOfI8LIR8v8jxDoRxhc-241" vertex="1">
          <mxGeometry x="60" width="120" height="30" as="geometry">
            <mxRectangle width="120" height="30" as="alternateBounds" />
          </mxGeometry>
        </mxCell>
        <mxCell id="9kOfI8LIR8v8jxDoRxhc-250" style="edgeStyle=orthogonalEdgeStyle;rounded=0;orthogonalLoop=1;jettySize=auto;html=1;exitX=1;exitY=0.5;exitDx=0;exitDy=0;entryX=0;entryY=0.5;entryDx=0;entryDy=0;" parent="1" source="9kOfI8LIR8v8jxDoRxhc-238" target="9kOfI8LIR8v8jxDoRxhc-72" edge="1">
          <mxGeometry relative="1" as="geometry" />
        </mxCell>
        <mxCell id="9kOfI8LIR8v8jxDoRxhc-251" style="edgeStyle=orthogonalEdgeStyle;rounded=0;orthogonalLoop=1;jettySize=auto;html=1;exitX=0;exitY=0.5;exitDx=0;exitDy=0;entryX=0;entryY=0.5;entryDx=0;entryDy=0;" parent="1" source="9kOfI8LIR8v8jxDoRxhc-241" target="9kOfI8LIR8v8jxDoRxhc-169" edge="1">
          <mxGeometry relative="1" as="geometry" />
        </mxCell>
        <mxCell id="9kOfI8LIR8v8jxDoRxhc-255" style="edgeStyle=orthogonalEdgeStyle;rounded=0;orthogonalLoop=1;jettySize=auto;html=1;exitX=0;exitY=0.5;exitDx=0;exitDy=0;entryX=1;entryY=0.5;entryDx=0;entryDy=0;" parent="1" source="9kOfI8LIR8v8jxDoRxhc-91" target="9kOfI8LIR8v8jxDoRxhc-72" edge="1">
          <mxGeometry relative="1" as="geometry" />
        </mxCell>
        <mxCell id="1bn-54LvIB9bn4xnu5zx-1" value="A" style="shape=table;startSize=30;container=1;collapsible=1;childLayout=tableLayout;fixedRows=1;rowLines=0;fontStyle=1;align=center;resizeLast=1;html=1;fillColor=#dae8fc;strokeColor=#6c8ebf;" vertex="1" parent="1">
          <mxGeometry x="-190" y="510" width="180" height="110" as="geometry" />
        </mxCell>
        <mxCell id="1bn-54LvIB9bn4xnu5zx-2" value="" style="shape=tableRow;horizontal=0;startSize=0;swimlaneHead=0;swimlaneBody=0;fillColor=none;collapsible=0;dropTarget=0;points=[[0,0.5],[1,0.5]];portConstraint=eastwest;top=0;left=0;right=0;bottom=1;" vertex="1" parent="1bn-54LvIB9bn4xnu5zx-1">
          <mxGeometry y="30" width="180" height="30" as="geometry" />
        </mxCell>
        <mxCell id="1bn-54LvIB9bn4xnu5zx-3" value="PK" style="shape=partialRectangle;connectable=0;fillColor=none;top=0;left=0;bottom=0;right=0;fontStyle=1;overflow=hidden;whiteSpace=wrap;html=1;" vertex="1" parent="1bn-54LvIB9bn4xnu5zx-2">
          <mxGeometry width="30" height="30" as="geometry">
            <mxRectangle width="30" height="30" as="alternateBounds" />
          </mxGeometry>
        </mxCell>
        <mxCell id="1bn-54LvIB9bn4xnu5zx-4" value="ID_A" style="shape=partialRectangle;connectable=0;fillColor=none;top=0;left=0;bottom=0;right=0;align=left;spacingLeft=6;fontStyle=5;overflow=hidden;whiteSpace=wrap;html=1;" vertex="1" parent="1bn-54LvIB9bn4xnu5zx-2">
          <mxGeometry x="30" width="150" height="30" as="geometry">
            <mxRectangle width="150" height="30" as="alternateBounds" />
          </mxGeometry>
        </mxCell>
        <mxCell id="1bn-54LvIB9bn4xnu5zx-5" style="shape=tableRow;horizontal=0;startSize=0;swimlaneHead=0;swimlaneBody=0;fillColor=none;collapsible=0;dropTarget=0;points=[[0,0.5],[1,0.5]];portConstraint=eastwest;top=0;left=0;right=0;bottom=1;" vertex="1" parent="1bn-54LvIB9bn4xnu5zx-1">
          <mxGeometry y="60" width="180" height="30" as="geometry" />
        </mxCell>
        <mxCell id="1bn-54LvIB9bn4xnu5zx-6" value="FK" style="shape=partialRectangle;connectable=0;fillColor=none;top=0;left=0;bottom=0;right=0;fontStyle=1;overflow=hidden;whiteSpace=wrap;html=1;" vertex="1" parent="1bn-54LvIB9bn4xnu5zx-5">
          <mxGeometry width="30" height="30" as="geometry">
            <mxRectangle width="30" height="30" as="alternateBounds" />
          </mxGeometry>
        </mxCell>
        <mxCell id="1bn-54LvIB9bn4xnu5zx-7" value="ID_B" style="shape=partialRectangle;connectable=0;fillColor=none;top=0;left=0;bottom=0;right=0;align=left;spacingLeft=6;fontStyle=5;overflow=hidden;whiteSpace=wrap;html=1;" vertex="1" parent="1bn-54LvIB9bn4xnu5zx-5">
          <mxGeometry x="30" width="150" height="30" as="geometry">
            <mxRectangle width="150" height="30" as="alternateBounds" />
          </mxGeometry>
        </mxCell>
        <mxCell id="1bn-54LvIB9bn4xnu5zx-8" style="shape=tableRow;horizontal=0;startSize=0;swimlaneHead=0;swimlaneBody=0;fillColor=none;collapsible=0;dropTarget=0;points=[[0,0.5],[1,0.5]];portConstraint=eastwest;top=0;left=0;right=0;bottom=1;" vertex="1" parent="1bn-54LvIB9bn4xnu5zx-1">
          <mxGeometry y="90" width="180" height="20" as="geometry" />
        </mxCell>
        <mxCell id="1bn-54LvIB9bn4xnu5zx-9" style="shape=partialRectangle;connectable=0;fillColor=none;top=0;left=0;bottom=0;right=0;fontStyle=0;overflow=hidden;whiteSpace=wrap;html=1;" vertex="1" parent="1bn-54LvIB9bn4xnu5zx-8">
          <mxGeometry width="30" height="20" as="geometry">
            <mxRectangle width="30" height="20" as="alternateBounds" />
          </mxGeometry>
        </mxCell>
        <mxCell id="1bn-54LvIB9bn4xnu5zx-10" value="Nombre_Jugador" style="shape=partialRectangle;connectable=0;fillColor=none;top=0;left=0;bottom=0;right=0;align=left;spacingLeft=6;fontStyle=0;overflow=hidden;whiteSpace=wrap;html=1;" vertex="1" parent="1bn-54LvIB9bn4xnu5zx-8">
          <mxGeometry x="30" width="150" height="20" as="geometry">
            <mxRectangle width="150" height="20" as="alternateBounds" />
          </mxGeometry>
        </mxCell>
        <mxCell id="1bn-54LvIB9bn4xnu5zx-11" value="B" style="shape=table;startSize=30;container=1;collapsible=1;childLayout=tableLayout;fixedRows=1;rowLines=0;fontStyle=1;align=center;resizeLast=1;html=1;fillColor=#dae8fc;strokeColor=#6c8ebf;" vertex="1" parent="1">
          <mxGeometry x="220" y="520" width="180" height="80" as="geometry" />
        </mxCell>
        <mxCell id="1bn-54LvIB9bn4xnu5zx-12" value="" style="shape=tableRow;horizontal=0;startSize=0;swimlaneHead=0;swimlaneBody=0;fillColor=none;collapsible=0;dropTarget=0;points=[[0,0.5],[1,0.5]];portConstraint=eastwest;top=0;left=0;right=0;bottom=1;" vertex="1" parent="1bn-54LvIB9bn4xnu5zx-11">
          <mxGeometry y="30" width="180" height="30" as="geometry" />
        </mxCell>
        <mxCell id="1bn-54LvIB9bn4xnu5zx-13" value="PK" style="shape=partialRectangle;connectable=0;fillColor=none;top=0;left=0;bottom=0;right=0;fontStyle=1;overflow=hidden;whiteSpace=wrap;html=1;" vertex="1" parent="1bn-54LvIB9bn4xnu5zx-12">
          <mxGeometry width="30" height="30" as="geometry">
            <mxRectangle width="30" height="30" as="alternateBounds" />
          </mxGeometry>
        </mxCell>
        <mxCell id="1bn-54LvIB9bn4xnu5zx-14" value="ID_B" style="shape=partialRectangle;connectable=0;fillColor=none;top=0;left=0;bottom=0;right=0;align=left;spacingLeft=6;fontStyle=5;overflow=hidden;whiteSpace=wrap;html=1;" vertex="1" parent="1bn-54LvIB9bn4xnu5zx-12">
          <mxGeometry x="30" width="150" height="30" as="geometry">
            <mxRectangle width="150" height="30" as="alternateBounds" />
          </mxGeometry>
        </mxCell>
        <mxCell id="1bn-54LvIB9bn4xnu5zx-18" style="shape=tableRow;horizontal=0;startSize=0;swimlaneHead=0;swimlaneBody=0;fillColor=none;collapsible=0;dropTarget=0;points=[[0,0.5],[1,0.5]];portConstraint=eastwest;top=0;left=0;right=0;bottom=1;" vertex="1" parent="1bn-54LvIB9bn4xnu5zx-11">
          <mxGeometry y="60" width="180" height="20" as="geometry" />
        </mxCell>
        <mxCell id="1bn-54LvIB9bn4xnu5zx-19" style="shape=partialRectangle;connectable=0;fillColor=none;top=0;left=0;bottom=0;right=0;fontStyle=0;overflow=hidden;whiteSpace=wrap;html=1;" vertex="1" parent="1bn-54LvIB9bn4xnu5zx-18">
          <mxGeometry width="30" height="20" as="geometry">
            <mxRectangle width="30" height="20" as="alternateBounds" />
          </mxGeometry>
        </mxCell>
        <mxCell id="1bn-54LvIB9bn4xnu5zx-20" value="Nombre_Jugador" style="shape=partialRectangle;connectable=0;fillColor=none;top=0;left=0;bottom=0;right=0;align=left;spacingLeft=6;fontStyle=0;overflow=hidden;whiteSpace=wrap;html=1;" vertex="1" parent="1bn-54LvIB9bn4xnu5zx-18">
          <mxGeometry x="30" width="150" height="20" as="geometry">
            <mxRectangle width="150" height="20" as="alternateBounds" />
          </mxGeometry>
        </mxCell>
        <mxCell id="1bn-54LvIB9bn4xnu5zx-21" style="edgeStyle=orthogonalEdgeStyle;rounded=0;orthogonalLoop=1;jettySize=auto;html=1;exitX=1;exitY=0.5;exitDx=0;exitDy=0;entryX=0;entryY=0.5;entryDx=0;entryDy=0;" edge="1" parent="1" source="1bn-54LvIB9bn4xnu5zx-5" target="1bn-54LvIB9bn4xnu5zx-12">
          <mxGeometry relative="1" as="geometry" />
        </mxCell>
        <mxCell id="1bn-54LvIB9bn4xnu5zx-24" style="edgeStyle=orthogonalEdgeStyle;rounded=0;orthogonalLoop=1;jettySize=auto;html=1;exitX=1;exitY=0.5;exitDx=0;exitDy=0;entryX=0;entryY=0.5;entryDx=0;entryDy=0;startArrow=ERmany;startFill=0;endArrow=ERone;endFill=0;" edge="1" parent="1" source="1bn-54LvIB9bn4xnu5zx-22" target="1bn-54LvIB9bn4xnu5zx-23">
          <mxGeometry relative="1" as="geometry" />
        </mxCell>
        <mxCell id="1bn-54LvIB9bn4xnu5zx-22" value="A" style="rounded=0;whiteSpace=wrap;html=1;" vertex="1" parent="1">
          <mxGeometry x="-70" y="720" width="120" height="60" as="geometry" />
        </mxCell>
        <mxCell id="1bn-54LvIB9bn4xnu5zx-23" value="B" style="rounded=0;whiteSpace=wrap;html=1;" vertex="1" parent="1">
          <mxGeometry x="190" y="720" width="120" height="60" as="geometry" />
        </mxCell>
        <mxCell id="p-k_2Ur8RAB1gB5OXmNL-1" style="edgeStyle=orthogonalEdgeStyle;rounded=0;orthogonalLoop=1;jettySize=auto;html=1;exitX=0;exitY=0.5;exitDx=0;exitDy=0;entryX=0;entryY=0.5;entryDx=0;entryDy=0;" edge="1" parent="1" source="9kOfI8LIR8v8jxDoRxhc-206" target="9kOfI8LIR8v8jxDoRxhc-155">
          <mxGeometry relative="1" as="geometry" />
        </mxCell>
        <mxCell id="p-k_2Ur8RAB1gB5OXmNL-2" style="edgeStyle=orthogonalEdgeStyle;rounded=0;orthogonalLoop=1;jettySize=auto;html=1;exitX=0;exitY=0.5;exitDx=0;exitDy=0;entryX=0;entryY=0.5;entryDx=0;entryDy=0;" edge="1" parent="1" source="9kOfI8LIR8v8jxDoRxhc-209" target="9kOfI8LIR8v8jxDoRxhc-155">
          <mxGeometry relative="1" as="geometry">
            <mxPoint x="30" y="240" as="targetPoint" />
          </mxGeometry>
        </mxCell>
        <mxCell id="p-k_2Ur8RAB1gB5OXmNL-4" style="edgeStyle=orthogonalEdgeStyle;rounded=0;orthogonalLoop=1;jettySize=auto;html=1;exitX=1;exitY=0.5;exitDx=0;exitDy=0;entryX=0;entryY=0.5;entryDx=0;entryDy=0;" edge="1" parent="1" source="9kOfI8LIR8v8jxDoRxhc-200" target="9kOfI8LIR8v8jxDoRxhc-224">
          <mxGeometry relative="1" as="geometry" />
        </mxCell>
      </root>
    </mxGraphModel>
  </diagram>
  <diagram name="DER Viejo" id="r2D_5hyv64Q0nixh_tBD">
    <mxGraphModel dx="809" dy="531" grid="1" gridSize="10" guides="1" tooltips="1" connect="1" arrows="1" fold="1" page="1" pageScale="1" pageWidth="827" pageHeight="1169" math="0" shadow="0">
      <root>
        <mxCell id="0" />
        <mxCell id="1" parent="0" />
        <mxCell id="8YIVfta_n8EaYGyjYW4Q-6" style="edgeStyle=orthogonalEdgeStyle;rounded=0;orthogonalLoop=1;jettySize=auto;html=1;exitX=0.5;exitY=1;exitDx=0;exitDy=0;entryX=0.5;entryY=0;entryDx=0;entryDy=0;endArrow=ERmany;endFill=0;startArrow=none;startFill=0;" parent="1" source="8YIVfta_n8EaYGyjYW4Q-3" target="8YIVfta_n8EaYGyjYW4Q-4" edge="1">
          <mxGeometry relative="1" as="geometry" />
        </mxCell>
        <mxCell id="8YIVfta_n8EaYGyjYW4Q-10" style="edgeStyle=orthogonalEdgeStyle;rounded=0;orthogonalLoop=1;jettySize=auto;html=1;entryX=0.5;entryY=0;entryDx=0;entryDy=0;endArrow=ERmandOne;endFill=0;startArrow=ERzeroToMany;startFill=0;exitX=0.5;exitY=1;exitDx=0;exitDy=0;" parent="1" target="8YIVfta_n8EaYGyjYW4Q-9" edge="1" source="8YIVfta_n8EaYGyjYW4Q-2">
          <mxGeometry relative="1" as="geometry">
            <mxPoint x="220" y="220" as="sourcePoint" />
            <mxPoint x="220" y="310" as="targetPoint" />
          </mxGeometry>
        </mxCell>
        <mxCell id="8YIVfta_n8EaYGyjYW4Q-2" value="Jugador" style="rounded=0;whiteSpace=wrap;html=1;fillColor=#dae8fc;strokeColor=#6c8ebf;" parent="1" vertex="1">
          <mxGeometry x="160" y="140" width="120" height="60" as="geometry" />
        </mxCell>
        <mxCell id="8YIVfta_n8EaYGyjYW4Q-4" value="&lt;div&gt;Atributos&lt;br&gt;Jugador&lt;br&gt;&lt;/div&gt;" style="rounded=0;whiteSpace=wrap;html=1;fillColor=#f5f5f5;strokeColor=#666666;fontColor=#333333;" parent="1" vertex="1">
          <mxGeometry x="300" y="220" width="120" height="60" as="geometry" />
        </mxCell>
        <mxCell id="8YIVfta_n8EaYGyjYW4Q-7" value="" style="edgeStyle=orthogonalEdgeStyle;rounded=0;orthogonalLoop=1;jettySize=auto;html=1;exitX=1;exitY=0.5;exitDx=0;exitDy=0;entryX=0;entryY=0.5;entryDx=0;entryDy=0;endArrow=none;endFill=0;startArrow=ERmandOne;startFill=0;" parent="1" source="8YIVfta_n8EaYGyjYW4Q-2" target="8YIVfta_n8EaYGyjYW4Q-3" edge="1">
          <mxGeometry relative="1" as="geometry">
            <mxPoint x="280" y="170" as="sourcePoint" />
            <mxPoint x="460" y="170" as="targetPoint" />
          </mxGeometry>
        </mxCell>
        <mxCell id="8YIVfta_n8EaYGyjYW4Q-3" value="Tiene" style="rhombus;whiteSpace=wrap;html=1;fillColor=#fff2cc;strokeColor=#d6b656;" parent="1" vertex="1">
          <mxGeometry x="330" y="150" width="60" height="40" as="geometry" />
        </mxCell>
        <mxCell id="8YIVfta_n8EaYGyjYW4Q-22" style="edgeStyle=orthogonalEdgeStyle;rounded=0;orthogonalLoop=1;jettySize=auto;html=1;exitX=1;exitY=0.5;exitDx=0;exitDy=0;entryX=0;entryY=0.5;entryDx=0;entryDy=0;endArrow=ERmandOne;endFill=0;startArrow=ERoneToMany;startFill=0;" parent="1" source="8YIVfta_n8EaYGyjYW4Q-9" target="8YIVfta_n8EaYGyjYW4Q-19" edge="1">
          <mxGeometry relative="1" as="geometry" />
        </mxCell>
        <mxCell id="8YIVfta_n8EaYGyjYW4Q-15" style="edgeStyle=orthogonalEdgeStyle;rounded=0;orthogonalLoop=1;jettySize=auto;html=1;exitX=0.75;exitY=1;exitDx=0;exitDy=0;entryX=0.75;entryY=0;entryDx=0;entryDy=0;endArrow=ERzeroToMany;endFill=0;startArrow=ERmandOne;startFill=0;" parent="1" source="8YIVfta_n8EaYGyjYW4Q-9" target="8YIVfta_n8EaYGyjYW4Q-12" edge="1">
          <mxGeometry relative="1" as="geometry" />
        </mxCell>
        <mxCell id="8YIVfta_n8EaYGyjYW4Q-9" value="Equipo" style="rounded=0;whiteSpace=wrap;html=1;fillColor=#dae8fc;strokeColor=#6c8ebf;" parent="1" vertex="1">
          <mxGeometry x="160" y="320" width="120" height="60" as="geometry" />
        </mxCell>
        <mxCell id="8YIVfta_n8EaYGyjYW4Q-11" value="Pertenece a" style="rhombus;whiteSpace=wrap;html=1;fillColor=#ffe6cc;strokeColor=#d79b00;" parent="1" vertex="1">
          <mxGeometry x="170" y="240" width="100" height="40" as="geometry" />
        </mxCell>
        <mxCell id="8YIVfta_n8EaYGyjYW4Q-16" style="edgeStyle=orthogonalEdgeStyle;rounded=0;orthogonalLoop=1;jettySize=auto;html=1;exitX=0.25;exitY=0;exitDx=0;exitDy=0;entryX=0.25;entryY=1;entryDx=0;entryDy=0;startArrow=ERzeroToOne;startFill=0;endArrow=ERoneToMany;endFill=0;" parent="1" source="8YIVfta_n8EaYGyjYW4Q-12" target="8YIVfta_n8EaYGyjYW4Q-2" edge="1">
          <mxGeometry relative="1" as="geometry">
            <Array as="points">
              <mxPoint x="190" y="470" />
              <mxPoint x="90" y="470" />
              <mxPoint x="90" y="220" />
              <mxPoint x="190" y="220" />
            </Array>
          </mxGeometry>
        </mxCell>
        <mxCell id="8YIVfta_n8EaYGyjYW4Q-12" value="Plantel" style="rounded=0;whiteSpace=wrap;html=1;fillColor=#d5e8d4;strokeColor=#82b366;" parent="1" vertex="1">
          <mxGeometry x="160" y="500" width="120" height="60" as="geometry" />
        </mxCell>
        <mxCell id="8YIVfta_n8EaYGyjYW4Q-14" style="rounded=0;orthogonalLoop=1;jettySize=auto;html=1;exitX=1;exitY=0.5;exitDx=0;exitDy=0;entryX=0;entryY=0.5;entryDx=0;entryDy=0;endArrow=none;endFill=0;" parent="1" source="8YIVfta_n8EaYGyjYW4Q-13" target="8YIVfta_n8EaYGyjYW4Q-12" edge="1">
          <mxGeometry relative="1" as="geometry" />
        </mxCell>
        <mxCell id="8YIVfta_n8EaYGyjYW4Q-13" value="Temporada" style="ellipse;whiteSpace=wrap;html=1;" parent="1" vertex="1">
          <mxGeometry x="55" y="510" width="70" height="40" as="geometry" />
        </mxCell>
        <mxCell id="8YIVfta_n8EaYGyjYW4Q-17" value="Lista&lt;div&gt;varios&lt;/div&gt;" style="rhombus;whiteSpace=wrap;html=1;fillColor=#FFD0C0;strokeColor=#D7a010;" parent="1" vertex="1">
          <mxGeometry x="50" y="325" width="80" height="50" as="geometry" />
        </mxCell>
        <mxCell id="8YIVfta_n8EaYGyjYW4Q-18" value="PaÃ­s" style="whiteSpace=wrap;html=1;fillColor=#f5f5f5;strokeColor=#666666;fontColor=#333333;" parent="1" vertex="1">
          <mxGeometry x="440" y="500" width="120" height="60" as="geometry" />
        </mxCell>
        <mxCell id="8YIVfta_n8EaYGyjYW4Q-19" value="Liga" style="whiteSpace=wrap;html=1;fillColor=#d5e8d4;strokeColor=#82b366;" parent="1" vertex="1">
          <mxGeometry x="440" y="320" width="120" height="60" as="geometry" />
        </mxCell>
        <mxCell id="8YIVfta_n8EaYGyjYW4Q-20" value="Forma" style="rhombus;whiteSpace=wrap;html=1;fillColor=#ffe6cc;strokeColor=#d79b00;" parent="1" vertex="1">
          <mxGeometry x="200" y="420" width="100" height="40" as="geometry" />
        </mxCell>
        <mxCell id="8YIVfta_n8EaYGyjYW4Q-21" value="Juega en" style="rhombus;whiteSpace=wrap;html=1;fillColor=#fff2cc;strokeColor=#d6b656;" parent="1" vertex="1">
          <mxGeometry x="320" y="330" width="80" height="40" as="geometry" />
        </mxCell>
        <mxCell id="8YIVfta_n8EaYGyjYW4Q-23" style="edgeStyle=orthogonalEdgeStyle;rounded=0;orthogonalLoop=1;jettySize=auto;html=1;entryX=0.5;entryY=0;entryDx=0;entryDy=0;endArrow=ERmandOne;endFill=0;startArrow=ERzeroToMany;startFill=0;exitX=0.5;exitY=1;exitDx=0;exitDy=0;" parent="1" source="8YIVfta_n8EaYGyjYW4Q-19" target="8YIVfta_n8EaYGyjYW4Q-18" edge="1">
          <mxGeometry relative="1" as="geometry">
            <mxPoint x="580" y="410" as="sourcePoint" />
            <mxPoint x="470" y="360" as="targetPoint" />
          </mxGeometry>
        </mxCell>
        <mxCell id="8YIVfta_n8EaYGyjYW4Q-24" value="Pertenece a" style="rhombus;whiteSpace=wrap;html=1;fillColor=#ffe6cc;strokeColor=#d79b00;" parent="1" vertex="1">
          <mxGeometry x="450" y="420" width="100" height="40" as="geometry" />
        </mxCell>
        <mxCell id="8YIVfta_n8EaYGyjYW4Q-26" value="Partido" style="rounded=0;whiteSpace=wrap;html=1;fillColor=#f5f5f5;strokeColor=#666666;fontColor=#333333;" parent="1" vertex="1">
          <mxGeometry x="440" y="140" width="120" height="60" as="geometry" />
        </mxCell>
        <mxCell id="8YIVfta_n8EaYGyjYW4Q-29" style="edgeStyle=orthogonalEdgeStyle;rounded=0;orthogonalLoop=1;jettySize=auto;html=1;exitX=0.5;exitY=1;exitDx=0;exitDy=0;entryX=0.5;entryY=0;entryDx=0;entryDy=0;endArrow=ERmandOne;endFill=0;startArrow=ERzeroToMany;startFill=0;" parent="1" source="8YIVfta_n8EaYGyjYW4Q-26" target="8YIVfta_n8EaYGyjYW4Q-19" edge="1">
          <mxGeometry relative="1" as="geometry">
            <mxPoint x="590" y="200" as="sourcePoint" />
            <mxPoint x="590" y="330" as="targetPoint" />
          </mxGeometry>
        </mxCell>
        <mxCell id="8YIVfta_n8EaYGyjYW4Q-27" value="Se&lt;div&gt;juega&lt;/div&gt;&lt;div&gt;en&lt;/div&gt;" style="rhombus;whiteSpace=wrap;html=1;fillColor=#ffe6cc;strokeColor=#d79b00;" parent="1" vertex="1">
          <mxGeometry x="460" y="230" width="80" height="60" as="geometry" />
        </mxCell>
        <mxCell id="8YIVfta_n8EaYGyjYW4Q-31" value="Fecha" style="ellipse;whiteSpace=wrap;html=1;" parent="1" vertex="1">
          <mxGeometry x="460" y="90" width="70" height="40" as="geometry" />
        </mxCell>
        <mxCell id="8YIVfta_n8EaYGyjYW4Q-32" value="Resultado" style="ellipse;whiteSpace=wrap;html=1;" parent="1" vertex="1">
          <mxGeometry x="540" y="90" width="70" height="40" as="geometry" />
        </mxCell>
        <mxCell id="8YIVfta_n8EaYGyjYW4Q-33" value="Goles&lt;div&gt;Local&lt;/div&gt;" style="ellipse;whiteSpace=wrap;html=1;" parent="1" vertex="1">
          <mxGeometry x="570" y="140" width="70" height="40" as="geometry" />
        </mxCell>
        <mxCell id="8YIVfta_n8EaYGyjYW4Q-34" value="Goles&lt;div&gt;Visitante&lt;/div&gt;" style="ellipse;whiteSpace=wrap;html=1;" parent="1" vertex="1">
          <mxGeometry x="560" y="200" width="70" height="40" as="geometry" />
        </mxCell>
        <mxCell id="8YIVfta_n8EaYGyjYW4Q-35" value="" style="endArrow=none;html=1;rounded=0;" parent="1" source="8YIVfta_n8EaYGyjYW4Q-26" target="8YIVfta_n8EaYGyjYW4Q-31" edge="1">
          <mxGeometry width="50" height="50" relative="1" as="geometry">
            <mxPoint x="640" y="290" as="sourcePoint" />
            <mxPoint x="480" y="50" as="targetPoint" />
          </mxGeometry>
        </mxCell>
        <mxCell id="8YIVfta_n8EaYGyjYW4Q-36" value="" style="endArrow=none;html=1;rounded=0;" parent="1" source="8YIVfta_n8EaYGyjYW4Q-26" target="8YIVfta_n8EaYGyjYW4Q-32" edge="1">
          <mxGeometry width="50" height="50" relative="1" as="geometry">
            <mxPoint x="512" y="150" as="sourcePoint" />
            <mxPoint x="514" y="120" as="targetPoint" />
          </mxGeometry>
        </mxCell>
        <mxCell id="8YIVfta_n8EaYGyjYW4Q-37" value="" style="endArrow=none;html=1;rounded=0;" parent="1" source="8YIVfta_n8EaYGyjYW4Q-26" target="8YIVfta_n8EaYGyjYW4Q-33" edge="1">
          <mxGeometry width="50" height="50" relative="1" as="geometry">
            <mxPoint x="522" y="160" as="sourcePoint" />
            <mxPoint x="524" y="130" as="targetPoint" />
          </mxGeometry>
        </mxCell>
        <mxCell id="8YIVfta_n8EaYGyjYW4Q-38" value="" style="endArrow=none;html=1;rounded=0;" parent="1" source="8YIVfta_n8EaYGyjYW4Q-34" target="8YIVfta_n8EaYGyjYW4Q-26" edge="1">
          <mxGeometry width="50" height="50" relative="1" as="geometry">
            <mxPoint x="532" y="170" as="sourcePoint" />
            <mxPoint x="534" y="140" as="targetPoint" />
          </mxGeometry>
        </mxCell>
        <mxCell id="8YIVfta_n8EaYGyjYW4Q-40" value="Equipo Local" style="ellipse;whiteSpace=wrap;html=1;" parent="1" vertex="1">
          <mxGeometry x="610" y="100" width="70" height="40" as="geometry" />
        </mxCell>
        <mxCell id="8YIVfta_n8EaYGyjYW4Q-41" value="Equipo Visitante" style="ellipse;whiteSpace=wrap;html=1;" parent="1" vertex="1">
          <mxGeometry x="630" y="180" width="70" height="40" as="geometry" />
        </mxCell>
        <mxCell id="8YIVfta_n8EaYGyjYW4Q-42" value="" style="endArrow=none;html=1;rounded=0;" parent="1" source="8YIVfta_n8EaYGyjYW4Q-26" target="8YIVfta_n8EaYGyjYW4Q-41" edge="1">
          <mxGeometry width="50" height="50" relative="1" as="geometry">
            <mxPoint x="650" y="430" as="sourcePoint" />
            <mxPoint x="700" y="380" as="targetPoint" />
          </mxGeometry>
        </mxCell>
        <mxCell id="8YIVfta_n8EaYGyjYW4Q-43" value="" style="endArrow=none;html=1;rounded=0;" parent="1" source="8YIVfta_n8EaYGyjYW4Q-26" target="8YIVfta_n8EaYGyjYW4Q-40" edge="1">
          <mxGeometry width="50" height="50" relative="1" as="geometry">
            <mxPoint x="600" y="350" as="sourcePoint" />
            <mxPoint x="650" y="300" as="targetPoint" />
          </mxGeometry>
        </mxCell>
      </root>
    </mxGraphModel>
  </diagram>
</mxfile>
